<svg width="188" height="45" viewBox="0 0 188 45" fill="none" xmlns="http://www.w3.org/2000/svg">
<path id="Union" fill-rule="evenodd" clip-rule="evenodd" d="M31.1363 40.7108C31.7137 41.0078 32.328 41.2759 32.979 41.515C35.2093 42.3343 37.3306 42.6149 39.343 42.3569C41.3677 42.0651 43.128 41.2926 44.6238 40.0395C46.1533 38.7988 47.3091 37.114 48.0911 34.9851L49.0593 32.3493C50.2509 29.1052 50.2035 26.1539 48.9173 23.4954C47.7036 20.987 45.5583 19.1095 42.4814 17.8628L45.6309 16.4648L53.3448 31.3912L57.6344 29.1066C57.4721 27.8063 57.6825 26.593 58.2655 25.4668C58.8316 24.3088 59.7342 23.3998 60.9734 22.7398C62.9435 21.6906 64.7087 21.4439 66.2691 21.9996C67.8612 22.5384 69.1819 23.7929 70.2311 25.7629L71.3246 27.8161L68.539 26.7929C67.757 28.9219 67.5306 30.948 67.8596 32.8714C68.1841 34.7682 68.9908 36.4691 70.2797 37.9742C69.9854 38.171 69.6681 38.3601 69.3278 38.5413C67.5802 39.472 66.0033 39.8428 64.5973 39.6535C63.1744 39.4324 62.0197 38.681 61.1331 37.3993L56.8436 39.6838C58.4813 41.993 60.5949 43.3962 63.1845 43.8932C65.7741 44.3903 68.4828 43.8857 71.3108 42.3797C72.274 41.8667 73.1328 41.3104 73.8873 40.7108C74.4647 41.0078 75.079 41.2759 75.73 41.515C77.9603 42.3343 80.0816 42.6149 82.0939 42.3569C84.1187 42.0651 85.879 41.2926 87.3748 40.0395C88.9043 38.7988 90.0601 37.114 90.8421 34.9851L91.8102 32.3493C93.0018 29.1052 92.9545 26.1539 91.6682 23.4954C90.4546 20.987 88.3093 19.1095 85.2324 17.8628L90.2113 15.6527L98.3448 31.3912L102.634 29.1066C102.472 27.8063 102.682 26.593 103.265 25.4668C103.832 24.3088 104.734 23.3998 105.973 22.7398C107.943 21.6906 109.709 21.4439 111.269 21.9996C112.861 22.5384 114.182 23.7929 115.231 25.7629L116.325 27.8161L113.539 26.7929C112.757 28.9219 112.531 30.948 112.86 32.8714C113.184 34.7682 113.991 36.4691 115.28 37.9742C114.985 38.171 114.668 38.3601 114.328 38.5413C112.58 39.472 111.003 39.8428 109.597 39.6535C108.174 39.4324 107.02 38.681 106.133 37.3993L101.844 39.6838C103.481 41.993 105.595 43.3962 108.184 43.8932C110.774 44.3903 113.483 43.8857 116.311 42.3797C117.274 41.8667 118.133 41.3104 118.887 40.7108C119.465 41.0078 120.079 41.2759 120.73 41.515C122.96 42.3343 125.082 42.6149 127.094 42.3569C129.119 42.0651 130.879 41.2926 132.375 40.0395C133.904 38.7988 135.06 37.114 135.842 34.9851L136.81 32.3493C138.002 29.1052 137.954 26.1539 136.668 23.4954C135.455 20.987 133.309 19.1095 130.232 17.8628L133.584 16.3749L141.345 31.3912L145.634 29.1066C145.472 27.8063 145.682 26.593 146.265 25.4668C146.832 24.3088 147.734 23.3998 148.973 22.7398C150.943 21.6906 152.709 21.4439 154.269 21.9996C155.861 22.5384 157.182 23.7929 158.231 25.7629L159.325 27.8161L156.539 26.7929C155.757 28.9219 155.531 30.948 155.86 32.8714C156.184 34.7682 156.991 36.4691 158.28 37.9742C157.985 38.171 157.668 38.3601 157.328 38.5413C155.58 39.472 154.003 39.8428 152.597 39.6535C151.174 39.4324 150.02 38.681 149.133 37.3993L144.844 39.6838C146.481 41.993 148.595 43.3962 151.184 43.8932C153.774 44.3903 156.483 43.8857 159.311 42.3797C160.274 41.8667 161.133 41.3104 161.887 40.7108C162.465 41.0078 163.079 41.2759 163.73 41.515C165.96 42.3343 168.082 42.6149 170.094 42.3569C172.119 42.0651 173.879 41.2926 175.375 40.0395C176.904 38.7988 178.06 37.114 178.842 34.9851L179.81 32.3493C181.002 29.1052 180.954 26.1539 179.668 23.4954C178.455 20.987 176.309 19.1095 173.232 17.8628L185.868 12.2538L187.544 7.69182L167.928 0.48645L166.401 4.64293L181.405 10.154L168.953 15.7053L167.277 20.2673L171.079 21.6637C173.174 22.4332 174.585 23.6035 175.312 25.1745C176.039 26.7454 176.018 28.5785 175.248 30.6736L174.28 33.3094C173.56 35.2694 172.402 36.6466 170.807 37.4411C169.211 38.2356 167.365 38.2481 165.27 37.4786C165.116 37.4218 164.965 37.3627 164.817 37.3013C165.102 36.7724 165.335 36.2217 165.515 35.6492C166.362 32.8735 165.964 29.9445 164.323 26.8624L162.521 23.4784C160.845 20.3327 158.748 18.3091 156.228 17.4076C153.724 16.4574 151.066 16.7513 148.255 18.2891C146.253 19.3552 144.877 20.6388 144.126 22.1397C143.62 23.1858 143.489 24.2342 143.735 25.2849L143.581 25.3667L137.936 14.4433L142.868 12.2538L143.496 10.5453L151.712 6.16975L149.63 2.26146L141.52 6.58097L124.928 0.48645L123.401 4.64293L136.278 9.37276L131.328 12.0088L131.874 13.0655L125.953 15.7053L124.277 20.2673L128.079 21.6637C130.174 22.4332 131.585 23.6035 132.312 25.1745C133.039 26.7454 133.018 28.5785 132.248 30.6736L131.28 33.3094C130.56 35.2694 129.402 36.6466 127.807 37.4411C126.211 38.2356 124.365 38.2481 122.27 37.4786C122.116 37.4218 121.965 37.3627 121.817 37.3013C122.103 36.7724 122.335 36.2217 122.515 35.6492C123.362 32.8735 122.964 29.9445 121.323 26.8624L119.521 23.4784C117.845 20.3327 115.748 18.3091 113.228 17.4076C110.724 16.4574 108.066 16.7513 105.255 18.2891C103.253 19.3552 101.877 20.6388 101.127 22.1397C100.62 23.1858 100.489 24.2342 100.735 25.2849L100.581 25.3667L94.5626 13.7212L97.8684 12.2538L98.0096 11.8695L108.712 6.16975L106.63 2.26146L97.7034 7.01573L79.9275 0.48645L78.4008 4.64293L92.4614 9.80753L88.3281 12.0088L88.4997 12.3408L80.9531 15.7053L79.2775 20.2673L83.0791 21.6637C85.1743 22.4332 86.5853 23.6035 87.3122 25.1745C88.0391 26.7454 88.0178 28.5785 87.2483 30.6736L86.2801 33.3094C85.5602 35.2694 84.4023 36.6466 82.8065 37.4411C81.2107 38.2356 79.3653 38.2481 77.2701 37.4786C77.1156 37.4218 76.9647 37.3627 76.8175 37.3013C77.1025 36.7724 77.3351 36.2217 77.5152 35.6492C78.3618 32.8735 77.9644 29.9445 76.3229 26.8624L74.5207 23.4784C72.8453 20.3327 70.7479 18.3091 68.2285 17.4076C65.7239 16.4574 63.066 16.7513 60.255 18.2891C58.2532 19.3552 56.877 20.6388 56.1265 22.1397C55.6199 23.1858 55.4894 24.2342 55.735 25.2849L55.5814 25.3667L49.9823 14.5332L55.1174 12.2538L55.8055 10.3804L63.7118 6.16975L61.6304 2.26146L53.6214 6.52683L37.1765 0.48645L35.6498 4.64293L48.3793 9.31863L43.3281 12.0088L43.9209 13.1557L38.2022 15.7053L36.5265 20.2673L40.3281 21.6637C42.4233 22.4332 43.8343 23.6035 44.5612 25.1745C45.2882 26.7454 45.2668 28.5785 44.4973 30.6736L43.5291 33.3094C42.8092 35.2694 41.6513 36.6466 40.0556 37.4411C38.4598 38.2356 36.6143 38.2481 34.5192 37.4786C34.3646 37.4218 34.2137 37.3627 34.0665 37.3013C34.3515 36.7724 34.5841 36.2217 34.7643 35.6492C35.6108 32.8735 35.2134 29.9445 33.5719 26.8624L31.7697 23.4784C30.0944 20.3327 27.997 18.3091 25.4775 17.4076C22.9729 16.4574 20.3151 16.7513 17.504 18.2891C15.5022 19.3552 14.1261 20.6388 13.3755 22.1397C12.8689 23.1858 12.7384 24.2342 12.984 25.2849L12.8304 25.3667L6.80521 13.7087L20.9608 6.16975L18.8794 2.26146L0.577148 12.0088L10.5938 31.3912L14.8834 29.1066C14.7211 27.8063 14.9315 26.593 15.5145 25.4668C16.0806 24.3088 16.9833 23.3998 18.2225 22.7398C20.1925 21.6906 21.9577 21.4439 23.5181 21.9996C25.1102 22.5384 26.4309 23.7929 27.4801 25.7629L28.5736 27.8161L25.788 26.7929C25.0061 28.9219 24.7796 30.948 25.1086 32.8714C25.4331 34.7682 26.2398 36.4691 27.5287 37.9742C27.2344 38.171 26.9171 38.3601 26.5768 38.5413C24.8292 39.472 23.2524 39.8428 21.8464 39.6535C20.4234 39.4324 19.2687 38.681 18.3822 37.3993L14.0926 39.6838C15.7303 41.993 17.8439 43.3962 20.4335 43.8932C23.0231 44.3903 25.7319 43.8857 28.5598 42.3797C29.523 41.8667 30.3818 41.3104 31.1363 40.7108ZM161.06 34.0148C161.254 32.8832 161.1 31.6705 160.6 30.3768C160.406 31.6794 160.551 32.8764 161.037 33.9678C161.045 33.9835 161.052 33.9992 161.06 34.0148ZM118.06 34.0148C118.254 32.8832 118.1 31.6705 117.6 30.3768C117.406 31.6794 117.551 32.8764 118.037 33.9678L118.06 34.0148ZM73.0599 34.0148C73.2536 32.8832 73.1004 31.6705 72.6003 30.3768C72.4055 31.6794 72.5511 32.8764 73.0371 33.9678L73.0599 34.0148ZM30.3089 34.0148C30.5027 32.8832 30.3494 31.6705 29.8493 30.3768C29.6545 31.6794 29.8001 32.8764 30.2861 33.9678L30.3089 34.0148Z" fill="#2CBF44"/>
</svg>
