<svg width="854" height="250" viewBox="0 0 854 250" fill="none" xmlns="http://www.w3.org/2000/svg">
<path d="M0 0H854V220L824.105 250H0V0Z" fill="#1C5B30"/>
<g clip-path="url(#clip0_544_95)">
<path d="M362.552 112.579L363.679 114.255C361.426 114.189 359.068 113.971 358.617 113.003C358.617 112.957 358.63 112.911 358.644 112.864C359.902 112.533 360.982 112.513 362.552 112.579ZM374.517 117.681L375.06 119.337L373.788 119.39L374.093 117.694C374.239 117.694 374.371 117.694 374.517 117.681ZM378.85 129.771C377.724 130.805 376.856 131.494 376.187 133.064C375.259 132.302 374.776 130.791 374.477 129.102C374.146 127.26 374.04 125.213 373.788 123.683L373.868 122.901L375.173 122.808L378.499 129.102L378.85 129.765V129.771ZM377.167 114.255C377.332 113.124 377.502 111.993 377.677 110.863L378.108 110.837C377.79 111.976 377.472 113.116 377.167 114.255ZM376.26 98.8722L382.222 100.489C382.212 100.577 382.203 100.665 382.196 100.754C379.42 102.807 376.856 103.708 375.478 107.418L376.001 99.1637L376.26 98.8788V98.8722ZM381.825 90.3259C381.44 94.1684 381.984 95.8644 382.653 98.2494C383.713 99.0047 384.137 99.4618 383.792 100.581C382.003 99.6937 380.109 98.7662 377.366 98.9119C377.299 98.8352 377.233 98.7579 377.167 98.68C377.936 95.6524 379.433 93.7908 380.592 91.3925L381.831 90.3193L381.825 90.3259ZM390.397 85.2114L390.656 85.1915C389.834 88.027 389.503 94.5659 388.065 97.1629C384.667 95.553 384.733 88.5769 388.536 85.8209L390.397 85.2114ZM387.231 106.213L390.093 109.32C388.966 112.778 386.84 115.382 385.939 119.39L384.249 119.257C382.805 115.223 386.416 108.651 387.032 105.709L389.682 106.014C390.013 106.842 390.331 107.67 390.656 108.505L387.231 106.213ZM395.061 85.1849C394.77 88.5438 395.512 90.2862 395.711 92.8832C394.028 93.7444 392.338 94.5924 390.656 95.447C390.968 91.9702 391.801 88.56 393.127 85.3307L395.061 85.1849ZM397.022 80.0837L397.4 80.0572L396.83 81.6935L395.711 81.7664L396.572 80.7528L397.022 80.0837ZM397.4 95.7518L392.338 98.8655C392.444 96.984 394.843 94.4467 396.85 93.7444L397.314 93.9962L397.4 95.7518ZM400.779 83.9725C400.467 85.7083 400.163 87.4374 399.864 89.1732L398.917 89.7694L398.414 90.3193C397.499 89.034 397.267 85.8805 397.466 83.4823L400.779 83.9725ZM404.144 80.0638C404.144 80.13 404.131 80.183 404.124 80.236L402.832 81.4749C401.971 81.8062 401.865 81.7929 400.779 81.7532C400.918 81.19 401.077 80.6269 401.229 80.0638H404.144ZM407.523 73.2268L406.012 76.6387L400.779 76.261L400.799 75.9828C402.952 74.989 404.84 73.8098 407.516 73.2202L407.523 73.2268ZM404.793 82.1043L405.35 81.773L405.834 83.4823L404.144 83.151L404.793 82.0977V82.1043ZM409.206 87.1592C407.198 87.9409 404.422 87.7223 402.813 88.6167C402.697 87.9318 402.58 87.2473 402.461 86.5629L403.508 85.1915C405.211 85.854 406.913 86.5298 408.609 87.1989L409.206 87.1592ZM404.893 90.2332L402.601 90.3193C402.548 90.0808 402.508 89.8423 402.461 89.5972C404.071 88.9413 406.774 88.8817 409.206 88.61L406.642 90.0212L404.893 90.2332ZM410.888 90.2332C408.961 90.7168 407.112 92.4194 405.847 93.7444C405.602 92.1942 408.576 89.4647 410.001 88.61C410.63 89.1732 410.696 89.1135 410.888 90.2332ZM414.267 69.8083L414.241 70.0733L412.213 71.2989L409.206 71.5175L409.232 71.2525L414.267 69.8083ZM411.538 74.936L410.888 73.9754C412.412 72.6968 415.771 73.399 417.639 73.5912L411.538 74.936ZM426.629 69.901C429.445 70.1329 432.022 70.7954 433.983 72.021L434.5 71.9879L434.189 72.4252L431.492 73.2202C429.869 72.9949 428.246 72.7564 426.629 72.5245L415.95 71.0074L415.976 70.7888C419.463 69.9607 423.054 69.6637 426.629 69.9077V69.901ZM437.846 69L437.249 69.8083C435.633 69.6927 434.087 69.0975 432.811 68.099L437.872 68.7417L437.846 69ZM446.829 75.3203L448.227 74.7903L449.678 76.0358C449.479 77.4602 448.108 78.6262 447.054 80.0108L446.246 80.0638C444.047 76.42 441.271 72.4384 436.401 71.0339L436.189 70.6033L438.157 69.8083C441.463 70.961 444.219 72.71 447.286 73.717C447.684 74.6777 447.558 74.353 446.822 75.3203H446.829ZM450.897 83.4227L450.513 83.045L449.678 83.1047L451.069 81.7797L450.897 83.4227ZM452.387 102.291C454.666 104.265 455.249 107.127 454.302 110.837C453.322 108.637 452.348 106.431 451.361 104.232C451.692 103.742 452.003 103.251 452.328 102.761C452.348 102.602 452.361 102.443 452.387 102.291ZM453.05 86.9207L453.023 87.2387L451.824 88.61L451.361 87.7024C452.083 86.4105 451.559 87.1062 452.507 86.9737L453.05 86.9207ZM454.454 86.9008L459.794 88.8817C459.788 89.0605 459.768 89.2394 459.748 89.4117C459.297 89.723 458.847 90.0212 458.396 90.3193L453.05 88.345L453.096 87.8084L454.454 86.9008ZM464.856 93.7444L461.894 91.7768L461.484 90.9818C462.769 90.1868 462.583 90.2265 463.941 90.4915C464.24 91.578 464.551 92.6645 464.856 93.7444ZM466.538 93.0952L465.942 93.7444C465.227 93.3734 465.101 92.903 464.856 92.0285L466.399 92.7043L466.538 93.0952ZM465.28 88.1993L464.856 88.2324C465.319 87.7885 465.783 87.3447 466.26 86.9074C465.929 87.338 465.598 87.7687 465.28 88.1993ZM473.289 96.7985L472.461 97.1629C470.956 96.3197 469.452 95.4739 467.95 94.6255C467.478 93.986 467.008 93.3456 466.538 92.7043C468.877 90.9818 468.963 92.9825 471.169 94.0757L473.289 96.7985ZM474.972 98.309L473.289 97.6929L474.303 97.1629L474.972 98.309ZM472.918 101.065C473.528 102.291 473.528 101.946 474.972 101.761L472.382 104L469.911 99.2829L469.944 98.9914C471.766 98.6005 472.349 99.2564 474.131 99.5214L474.813 100.621L472.918 101.065ZM473.289 104.132L476.661 102.291C475.986 103.814 475.105 104.596 474.064 105.709L473.289 104.132ZM480.034 110.658C479.119 111.446 478.523 111.698 476.794 111.844L478.185 111.996L478.159 112.241L473.409 114.255L473.289 108.16L476.562 104.285L477.158 104L480.034 110.658ZM478.344 101.304C487.659 98.7065 485.857 103.649 481.703 107.418C480.577 105.385 479.457 103.344 478.344 101.304ZM486.778 102.291C483.346 118.416 482.684 119.297 470.547 126.227C470.348 125.902 470.129 125.584 469.911 125.266L470.341 123.464C478.258 121.212 482.756 117.064 482.286 107.677L486.254 102.576L486.778 102.291ZM487.189 102.291C487.056 101.734 486.924 101.178 486.778 100.621L488.037 100.581L487.189 102.291ZM466.538 117.972L466.658 116.19L466.764 114.666L467.93 114.275C467.989 114.275 468.042 114.262 468.095 114.255C468.427 116.276 468.095 117.767 467.433 119.39C466.863 119.025 466.75 118.873 466.538 117.972ZM459.794 132.931L459.821 132.633L462.033 127.34L462.497 126.227L466.393 126.492C466.452 126.783 466.492 127.068 466.512 127.34C466.684 129.354 465.989 130.964 465.273 133.064L459.794 132.931ZM461.484 139.795L461.53 137.145L461.596 136.482L464.445 136.694L464.856 136.661C464.2 137.741 463.551 138.821 462.908 139.907L461.484 139.795ZM459.814 128.731L459.986 128.645L461.331 127.949L461.484 127.936L461.285 128.645L460.496 131.355L459.794 128.943L459.814 128.731ZM457.184 137.244L456.422 136.482C457.164 136.999 456.68 136.496 457.184 137.244ZM453.05 135.21C453.997 134.614 455.024 134.8 456.429 134.813L456.011 136.184C454.852 136.648 454.686 136.476 453.381 136.337L453.05 135.21ZM455.117 141.61L456.422 144.697C455.415 145.38 454.401 146.055 453.394 146.744C452.493 145.506 453.474 142.041 455.117 141.61ZM451.785 130.878L451.361 130.911L451.917 129.645L451.785 130.878ZM456.641 131.355L456.422 131.215L457.164 129.652L457.409 129.645L458.111 131.288L456.641 131.355ZM468.321 109.128L468.228 108.551C468.672 108.008 468.957 107.67 469.718 107.425L469.917 108.432C469.586 108.651 469.255 108.863 468.93 109.088L468.321 109.128ZM468.228 113.301C467.923 113.706 467.38 113.931 466.996 114.255L466.538 105.709L468.228 113.301ZM465.134 124.763C466.247 124.14 466.406 124.716 466.538 126.22H463.166L463.226 125.69L465.134 124.763ZM463.478 120.039L464.24 119.39L464.856 120.49L464.571 121.099L463.166 120.933L463.478 120.039ZM463.166 124.571L461.411 126.227L460.265 126.035L459.801 126.081C460.066 125.558 460.344 125.034 460.616 124.518L463.166 124.571ZM456.806 123.597C456.104 123.106 456.608 123.173 456.475 122.802L456.806 123.597ZM462.12 115.965L456.422 113.01C456.687 109.101 457.164 104.609 456.78 100.581C461.172 102.171 465.114 109.32 462.12 115.965ZM458.111 115.965C459.509 116.707 459.436 117.382 461.378 117.979C461.715 119.244 461.199 119.748 460.39 121.092L458.323 121.013C457.899 118.76 458.363 117.469 458.111 115.965ZM458.496 127.022C457.787 126.532 458.297 126.598 458.164 126.227L458.496 127.022ZM469.911 110.565L469.93 110.247L471.454 109.128C471.719 110.877 471.62 113.792 471.222 115.965C470.321 115.262 470.156 112.294 469.911 110.565ZM469.911 115.965C470.255 115.395 470.6 114.825 470.931 114.255L470.335 115.938L469.911 115.965ZM479.749 110.857L480.034 110.837C480.113 117.389 476.072 118.582 470.759 121.039L469.911 121.099L473.223 114.236L479.749 110.857ZM469.745 98.0573C469.798 98.2295 469.858 98.3952 469.904 98.5674L469.487 98.8722L468.221 97.1629L469.745 98.0573ZM468.221 100.906L468.268 100.608C468.391 100.598 468.515 100.589 468.639 100.581L469.911 102.291C468.93 101.827 468.771 101.714 468.221 100.906ZM469.904 105.279L467.632 107.418L462.749 100.33L456.415 94.8309L457.807 93.7444C460.874 95.0694 466.24 97.5935 467.32 100.747C467.671 101.774 466.459 102.622 467.28 103.477C468.261 104.497 469.241 103.768 469.911 105.272L469.904 105.279ZM455.673 115.965L456.19 116.17L456.415 121.099L455.627 120.914C454.885 120.364 454.368 117.82 455.044 116.713L455.673 115.965ZM451.937 124.537L452.48 124.518L453.043 125.856L452.182 126.187L451.354 126.227C451.553 125.664 451.751 125.101 451.937 124.537ZM450.4 151.872L449.671 149.375C450.711 149.076 451.745 148.778 452.785 148.467L453.05 148.454C453.036 148.531 453.025 148.608 453.017 148.686L450.4 151.872ZM447.982 145.035C448.293 144.028 448.512 143.876 449.075 143.319L449.539 143.505L449.671 143.942L448.631 144.962L447.982 145.029V145.035ZM448.777 146.744L447.982 145.87L449.671 145.035L449.234 146.711L448.777 146.744ZM447.001 154.496C446.763 154.31 446.538 154.118 446.299 153.919L446.816 153.886L449.419 151.872L449.671 153.926L447.677 155.291L447.001 154.496ZM447.134 174.079C443.073 174.251 440.641 173.218 437.329 172.926L433.533 165.42L432.804 164.665C439.177 163.91 443.185 160.836 447.909 158.709C449.578 160.299 453.361 168.395 450.029 171.979C449.234 173.205 448.346 173.331 447.134 174.079ZM429.697 165.646L431.221 165.546C433.519 167.09 435.083 169.852 436.183 172.39L429.432 170.435C429.935 168.726 430.147 166.99 429.697 165.646ZM424.847 159.193L432.453 157L444.404 158.166L444.616 158.769C441.059 160.372 437.011 161.724 432.93 163.791C428.511 164.142 427.444 162.492 424.384 161.406L424.847 159.193ZM424.377 167.249L424.529 165.765L427.438 165.546C427.676 166.838 427.928 167.56 427.57 168.965L424.377 167.242V167.249ZM420.998 169.925L422.131 169.303C423.522 168.382 424.562 169.607 426.06 170.091L425.463 170.674L420.998 169.925ZM424.278 167.255C423.91 167.092 423.543 166.926 423.178 166.759L422.688 165.546L424.377 165.652L424.278 167.255ZM419.315 167.255L421.005 168.706C421.005 169.601 420.925 169.501 420.72 170.674L419.315 167.255ZM414.943 160.849C416.526 160.365 418.633 160.471 421.005 160.418L418.799 162.128L414.261 161.684L414.943 160.849ZM410.888 75.1679C414.022 72.1734 421.879 73.0678 423.847 74.9692L424.377 74.9228C421.76 77.3674 417.706 77.6457 415.215 80.0638C413.26 78.7653 411.644 77.9305 410.888 75.1679ZM428.113 80.0638L429.438 81.5677C428.259 81.6339 427.02 81.7068 425.781 81.8128C422.992 82.0513 420.236 82.4687 418.308 83.469L418.057 83.4823C417.917 83.2638 417.778 83.0452 417.639 82.8264C420.804 81.1663 424.298 80.2296 427.868 80.0837L428.113 80.0638ZM434.685 71.5175C436.865 73.7038 440.118 75.0023 441.244 78.3545C436.673 76.2279 429.637 76.261 426.073 72.8757C429.213 73.5448 431.89 73.293 434.685 71.5175ZM436.189 83.4823L442.443 84.3435L442.934 84.3038L437.918 88.61C437.123 87.0267 436.938 84.8802 436.189 83.4823ZM444.225 90.7963L442.934 90.5975L444.616 90.3193L444.219 90.7963H444.225ZM442.934 86.7087L444.477 85.1915L444.616 86.9008L443.497 86.6557L442.934 86.7087ZM445.994 143.286L445.252 143.319L444.616 142.723L445.107 142.08L446.299 141.617L445.994 143.286ZM444.649 146.413C444.848 146.175 445.06 145.936 445.272 145.698L445.325 145.035L446.306 146.592L444.616 146.744L444.649 146.413ZM443.98 151.872L442.934 150.613L446.306 150.163L444.696 151.819L443.98 151.872ZM444.616 157L441.244 156.596L443.629 155.291L444.616 157ZM442.251 152.177L442.934 152.826L440.489 153.449L437.872 153.581L441.516 151.872L442.251 152.177ZM432.817 78.3545C434.785 78.4075 436.865 78.9044 437.872 80.0638C436.514 79.9313 434.069 80.1499 433.453 79.1032L432.817 78.3545ZM434.526 85.1915C435.487 86.0329 435.825 87.0267 435.653 88.61C434.169 88.0999 434.553 86.4768 434.526 85.1915ZM436.183 95.9704L436.242 95.6789C439.601 94.9502 440.323 96.1162 438.793 97.1629C437.468 96.9774 436.865 96.4805 436.183 95.9704ZM440.509 139.901L441.244 140.086C441.234 140.166 441.226 140.245 441.218 140.325L439.561 141.61L440.25 139.921L440.509 139.901ZM439.581 98.203L440.84 97.1629L441.244 98.8722L439.561 98.5012L439.575 98.203H439.581ZM444.616 143.916L440.542 144.982L439.561 145.029C439.561 144.976 439.575 144.916 439.588 144.863C441.112 144.558 442.092 144.055 442.993 143.319L444.424 143.584L444.616 143.916ZM441.708 139.901L441.244 138.953L442.404 138.192L442.934 138.476L442.271 139.854L441.708 139.901ZM431.128 151.726L433.135 150.163L439.349 150.693L439.561 151.157L435.361 153.581C433.804 153.323 432.459 152.634 431.651 151.687L431.128 151.726ZM428.007 151.872L431.121 153.581L426.066 152.687C426.716 152.422 427.358 152.144 428.007 151.872ZM427.756 155.364C427.748 155.5 427.742 155.637 427.736 155.774L426.775 156.304L426.066 156.397L426.093 155.986C426.828 155.012 426.702 155.337 427.749 155.364H427.756ZM419.806 85.7812C419.646 85.6097 419.485 85.4397 419.322 85.271C420.998 84.3568 423.642 83.9195 426.239 83.7142C428.378 83.5353 430.485 83.5154 431.996 83.4823L432.817 88.61C430.611 88.3715 428.511 88.08 426.239 87.9807C424.275 87.8833 422.307 87.9543 420.356 88.1927C420.176 87.388 419.993 86.5842 419.806 85.7812ZM422.283 154.383L422.694 155.112L422.297 156.642L417.639 157C418.136 155.476 418.878 154.741 419.68 153.581L422.283 154.383ZM416.533 148.454C414.413 148.334 411.511 146.784 410.888 145.035L417.639 146.751L416.533 148.454ZM418.905 148.361L417.639 148.454L417.679 148.043L419.084 146.744C419.017 147.281 418.964 147.818 418.905 148.361ZM414.267 85.8408L416.321 85.1915L417.639 86.8478L416.248 86.9008L414.267 85.8408ZM414.241 159.246C414.128 159.617 414.029 159.994 413.923 160.372C413.757 160.379 413.591 160.399 413.432 160.418C413.148 159.848 412.864 159.278 412.578 158.709L414.267 158.881L414.241 159.246ZM415.175 151.872L419.11 152.667L419.322 153.197L416.268 157L412.578 156.457L415.175 151.872ZM444.616 98.2892L445.378 97.1695L445.656 97.1629L447.776 97.6929L447.988 97.9977L445.623 98.8722C445.288 98.6771 444.952 98.4828 444.616 98.2892ZM449.181 92.7639L447.988 92.0352C449.201 92.479 448.505 91.9755 449.181 92.7639ZM448.797 100.581L447.988 99.8924L449.678 98.8722L448.797 100.581ZM447.988 112.546L450.612 113.195C451.321 113.474 451.301 113.547 451.361 114.255C450.234 113.825 448.353 113.527 447.988 112.546ZM448.253 107.889L448.611 107.425L449.678 109.128L447.988 108.796L448.253 107.889ZM414.088 164.142L414.267 164.592L411.995 165.46L410.888 165.546L410.915 165.314L411.69 164.102C412.763 163.605 412.79 163.93 414.088 164.142ZM409.206 78.3479C410.676 79.4477 411.061 80.7992 410.829 85.1915C409.862 83.9527 409.272 81.3225 409.206 78.3545V78.3479ZM410.173 74.936L410.054 76.1749L409.212 76.2345L410.18 74.936H410.173ZM409.206 76.6453C409.159 77.056 409.126 77.4668 409.073 77.8775L407.516 77.5927L408.802 76.6718L409.199 76.6453H409.206ZM409.206 175.808L410.04 167.103L415.95 165.546L409.736 175.49L409.206 175.808ZM409.623 152.409L410.531 151.872C411.359 152.853 410.617 154.264 409.835 155.291C409.186 154.681 409.113 154.297 409.285 152.912L409.623 152.409ZM404.144 151.574L406.085 148.454L409.199 150.282C408.139 151.952 407.059 153.621 405.986 155.291C405.019 154.429 404.422 153.164 404.144 151.581V151.574ZM404.144 164.963L407.258 162.128L408.722 162.26L409.206 163.055C409.073 163.89 408.954 164.718 408.835 165.546L404.144 164.963ZM399.089 162.644L402.799 160.418L405.622 160.862L405.834 161.253L402.859 163.837C401.375 163.685 400.388 163.287 399.613 162.611L399.083 162.644H399.089ZM398.592 159.339L399.951 158.709L400.534 158.835L400.772 159.113L396.843 160.418L395.717 160.021L398.592 159.339ZM394.028 157.735L395.022 155.33C396.863 155.092 397.301 156 398.685 156.576L399.083 157.185L397.022 158.597L395.346 158.709L394.028 157.735ZM390.649 164.751L393.107 160.418C394.737 160.418 394.935 160.551 395.605 161.412C395.903 161.916 395.644 161.644 394.995 161.757L394.843 163.247L397.4 163.645C396.896 164.897 396.817 164.731 396.062 165.526C393.544 165.659 392.405 165.182 390.649 164.751ZM387.814 158.709L392.1 160.001L392.338 160.511L389.589 163.837L385.594 162.525L387.814 158.709ZM371.297 154.085L371.35 153.575L373.742 155.417L373.947 155.907C368.972 159.749 376.584 172.271 385.243 164.155L388.966 165.652C387.535 168.203 385.077 169.21 382.487 170.654C376.293 171.171 367.627 161.054 371.297 154.085ZM377.074 155.834L377.167 156.993C376.703 156.642 376.24 156.304 375.789 155.953L375.478 155.284L377.074 155.834ZM385.594 163.095L382.514 165.48C376.445 166.116 373.987 161.916 373.788 156.755L374.974 155.324L375.491 155.284C378.545 157.689 381.248 161.359 385.395 162.572L385.594 163.095ZM379.718 138.185C379.168 137.787 379.135 137.589 378.857 136.913L380.009 132.527L381.354 131.348L382.222 132.62L379.718 138.185ZM378.857 139.662L381.513 133.375L382.056 133.057C383.282 135.217 385.058 136.197 385.594 139.132L381.593 143.313C380.348 142.386 379.396 141.121 378.85 139.669L378.857 139.662ZM383.911 144.896L387.29 141.603L388.966 145.029C387.284 144.976 385.601 144.936 383.911 144.896ZM392.338 110.347C390.742 113.759 388.615 116.077 387.343 119.383C386.787 116.382 390.139 112.069 391.219 109.419L391.736 109.121L392.338 110.347ZM392.338 100.939C394.849 100.164 396.532 98.7463 398.327 97.1563L399.089 99.4353L396.956 102.284L392.338 100.939ZM400.772 101.118L399.858 102.284L399.089 102.152L399.103 101.966L400.64 100.575L400.772 101.118ZM399.447 93.751L399.712 93.7378L400.772 95.9704L400.375 97.1563C398.831 96.348 398.891 95.3874 399.447 93.751ZM399.129 143.313L400.686 144.432L399.089 143.73C399.098 143.591 399.112 143.451 399.129 143.313ZM399.103 145.029L400.772 145.751C400.762 145.817 400.753 145.883 400.746 145.949L397.168 148.447C396.141 147.983 396.015 147.062 395.711 146.062L395.744 145.85L399.103 145.029ZM394.114 141.603L395.717 142.253L394.856 142.75L394.028 142.842L394.114 141.603ZM394.028 107.418C396.055 107.988 395.412 107.604 395.499 109.121C394.571 108.578 394.505 108.326 394.028 107.418ZM394.028 137.953L394.167 136.476C394.955 137.026 395.227 137.35 395.717 138.185C395.154 138.106 394.591 138.029 394.028 137.953ZM397.407 116.601C396.771 117.416 396.797 117.197 395.717 117.667L396.453 115.958L397.407 116.601ZM397.407 109.724L396.347 110.83C395.287 110.234 395.783 110.473 396.26 109.366L396.89 109.121L397.407 109.724ZM397.267 106.816L395.717 105.703C396.91 106.16 396.631 105.881 397.267 106.816ZM394.028 138.185L395.717 139.53C394.856 139.51 394.392 139.324 394.028 138.185ZM399.089 138.119L398.4 138.185L397.811 137.098L397.4 136.568L398.314 136.476C398.573 137.026 398.824 137.575 399.089 138.119ZM398.162 106.464L397.4 105.709C398.142 106.226 397.652 105.722 398.155 106.471L398.162 106.464ZM398.261 134.621L397.4 132.832L397.764 131.361L397.976 131.348L399.089 134.766C398.813 134.717 398.537 134.669 398.261 134.621ZM393.842 154.516L394.028 154.741L393.425 157C392.715 156.705 392.091 156.239 391.607 155.642C391.123 155.045 390.796 154.337 390.656 153.581L393.842 154.522V154.516ZM388.966 157L390.656 158.497C389.576 158.02 389.51 158.04 388.966 157ZM391.881 141.842L392.08 143.319L390.656 141.61L391.881 141.842ZM390.212 149.838L388.966 146.744C390.444 147.308 391.596 148.997 392.345 150.163L390.212 149.838ZM391.537 119.403L391.954 119.39L390.722 121.099C390.523 120.675 390.768 120.271 391.451 119.774L391.537 119.403ZM390.656 134.097L390.318 134.773L389.351 134.024C389.222 133.753 389.094 133.481 388.966 133.21L390.291 133.064L390.656 134.097ZM378.85 148.454C382.229 150.653 387.973 152.694 388.966 157C384.96 154.999 381.492 152.069 378.85 148.454ZM387.615 146.797L388.966 148.454L385.594 146.744L387.615 146.797ZM399.964 151.872L397.4 149.288L401.885 145.035L402.461 149.719L399.964 151.872ZM402.461 154.728L402.905 153.615L403.502 153.581L404.144 155.291L402.461 154.728ZM404.734 148.454L404.144 146.744L405.37 146.97L404.734 148.454ZM402.461 90.8824L402.475 90.73C403.031 90.5975 403.588 90.465 404.144 90.3193L402.978 92.0285L402.461 90.8824ZM385.455 126.227L383.911 122.808C385.892 123.239 385.568 124.65 385.455 126.227ZM381.328 127.936C379.883 126.936 378.963 124.942 378.85 122.808C381.811 123.504 381.646 124.67 382.229 127.373L381.328 127.936ZM379.585 119.012C377.432 116.978 380.566 108.843 381.944 106.968C382.673 106.047 383.587 106.067 384.793 105.709L385.594 105.915C383.567 109.505 382.202 114.395 381.719 119.39L379.585 119.012ZM376.438 146.744L377.465 148.474L376.544 150.627L376.014 151.19C376.77 151.296 376.942 150.647 378.068 149.726C380.254 153.27 383.593 156.662 387.277 158.59L385.27 162.128L379.175 158.206C378.479 156.914 379.44 155.43 378.32 154.641C377.306 153.926 376.001 154.959 374.968 154.648L372.106 152.025C372.947 150.143 373.755 148.301 375.418 147.341L376.438 146.744ZM370.608 127.89C370.838 126.185 371.168 124.495 371.596 122.828L371.821 122.808L372.702 127.89L373.166 130.54C374.491 134.236 375.829 137.927 377.167 141.61C373.961 139.861 371.98 135.813 372.265 130.367C371.496 132.123 372.132 134.886 372.384 136.436C370.416 134.766 370.171 131.447 370.608 127.89ZM367.68 129.645C367.374 128.998 367.181 128.304 367.11 127.592C367.016 126.633 367.025 125.667 367.137 124.71L367.428 124.1L368.734 122.808L367.998 127.585L367.68 129.639V129.645ZM485.088 146.738L481.716 145.439L484.989 145.035L485.088 146.738ZM395.85 174.563L396.731 174.099L395.711 175.802L395.843 174.569L395.85 174.563ZM370.416 115.971L368.979 115.839C367.19 115.249 365.514 113.162 365.361 110.844C368.098 111.089 369.025 112.387 370.377 113.971C370.39 114.633 370.41 115.302 370.416 115.971ZM370.218 115.832C370.416 112.142 367.601 109.837 363.944 109.936C364.566 104.755 369.071 102.105 373.086 100.363L373.861 100.303C373.192 106.809 373.702 112.414 371.271 118.045C369.476 122.192 363.109 122.113 363.453 128.512L363.5 129.042C364.407 137.549 373.656 139.278 374.935 146.758C361.221 153.734 377.936 183.049 388.781 165.831C390.729 166.109 392.458 166.99 394.876 166.142C396.002 165.52 396.221 165.016 396.658 163.718L400.534 165.725L400.732 166.215C397.181 168.971 394.677 172.754 390.861 175.338L391.225 174.291L390.232 174.112L389.682 174.41L389.185 176.729C391.365 178.955 397.97 170.906 399.904 169.329C398.811 173.152 396.108 175.119 394.604 178.617L395.068 179.094C397.917 177.054 401.408 171.277 401.938 166.884L406.205 167.593C400.858 174.821 387.125 190.721 379.903 194.968C381.003 191.516 382.752 188.879 383.64 186.044L383.123 186.084C382.969 185.924 382.814 185.765 382.659 185.607C380.904 189.065 378.009 191.496 377.492 196.16C377.801 196.623 378.191 197.024 378.645 197.346C387.231 195.915 401.567 174.338 408.417 168.441C406.562 187.058 396.585 189.959 387.933 201.235C395.797 197.313 400.567 187.309 407.291 181.758C406.549 189.529 404.701 206.906 400.05 210L400.818 209.94C406.039 206.694 406.344 193.345 408.086 186.521L408.828 179.346L416.281 168.879L416.824 168.58C417.659 171.197 421.435 174.039 425.523 173.278L428.458 172.045L435.825 174.801C436.792 185.401 436.421 191.344 429.71 199.413C436.567 195.909 439.084 182.407 436.799 175.239C452.745 177.087 452.103 171.707 449.082 160.094L451.884 160.14C451.367 159.365 449.969 159.941 448.903 159.345C448.419 159.034 448.512 159.093 448.214 158.63C452.003 154.357 461.132 158.603 459.211 165.699C461.835 159.816 456.038 154.582 450.453 156.689C452.838 153.86 455.726 151.534 457.237 147.791L457.78 147.5L470.898 161.28L471.673 161.22L472.269 160.412C468.095 155.47 463.928 150.521 459.768 145.572L461.106 144.962C461.402 144.657 461.765 144.426 462.167 144.286C462.568 144.147 462.997 144.104 463.418 144.161C463.197 144.051 462.976 143.94 462.756 143.829C469.453 144.499 478.013 150.083 485.002 148.281C485.645 147.162 485.678 146.559 485.287 145.466C492.734 145.651 506.129 143.16 510.396 139.543C498.935 141.948 486.029 142.763 475.509 141.358L466.187 140.265L465.664 140.305L468.175 135.8C475.86 135.654 496.013 135.462 500.087 130.639L499.186 129.433L495.675 128.93C495.37 129.38 495.324 129.804 495.278 130.235L498.06 130.533C492.018 132.057 475.191 135.27 469.699 133.395C469.122 132.693 469.546 130.255 469.573 128.499C469.583 128.185 469.569 127.871 469.533 127.558C477.43 125.2 483.293 119.887 485.698 111.87C487.069 107.279 486.162 101.251 489.13 98.3885C491.024 98.5542 491.409 99.3558 492.8 99.899C492.065 98.8788 491.011 98.309 489.693 97.8453L487.222 99.5479C484.963 100.422 482.597 98.1368 478.762 99.9189C475.648 97.2557 473.892 93.0488 469.685 91.4389L469.255 90.7102L474.356 85.748C472.686 87.1459 470.984 88.7955 469.281 90.4518L465.863 88.9214L465.664 88.4245C469.559 85.6685 473.018 84.6483 477.45 85.5228C477.655 85.9335 477.874 86.3377 478.086 86.7484C477.88 87.0995 477.695 87.1989 477.516 87.2983L476.025 86.9008C476.668 87.2784 477.337 87.3977 478.006 87.5169L478.569 86.967L478.656 86.1985C477.688 85.3373 477.39 84.7145 475.489 84.6483L476.396 83.31C474.223 84.8073 469.811 85.2048 467.651 86.5033L472.647 82.568L473.243 81.7664L464.001 87.2784C462.027 87.1459 459.927 86.2184 458.86 85.112C458.69 85.1251 458.52 85.1384 458.35 85.1518L469.321 77.7318L469.142 76.9832C464.982 79.4079 460.814 81.8327 456.661 84.264L452.672 83.2835L453.043 79.6994L481.643 57.2407L482.154 57.2009L481.749 56.2138C480.689 55.7103 476.337 59.2414 474.694 60.2948C468.36 64.3559 462.762 69.4108 456.535 73.081C459.105 69.8149 463.809 66.562 464.591 61.8053L463.332 61.6463L461.371 63.3158L463.504 62.3883C462.126 66.5819 455.885 74.0682 452.361 76.4399L451.95 75.4528C454.242 71.597 456.502 66.4097 455.442 61.4608L453.52 60.3345L451.46 60.4869C452.778 61.0103 453.673 61.1362 454.64 61.7788C455.256 66.5753 452.898 69.8215 451.626 73.7038L451.082 73.9953C450.234 72.4252 450.287 71.6699 448.545 71.385L448.393 70.378L449.585 68.7615L450.407 68.1918C450.685 68.7218 450.698 68.5297 450.784 69.4373C451.028 69.0473 451.163 68.5988 451.175 68.1388L450.201 67.7015L447.624 70.431C445.471 68.9934 443.099 67.4829 440.072 66.9198C441.787 63.3622 447.001 57.6448 444.312 53.1332C441.026 47.6477 429.809 53.9679 425.702 58.3205C425.225 58.8059 424.811 59.3489 424.47 59.937C424.735 59.725 425.159 59.3938 425.702 58.983C429.756 55.962 440.549 48.7275 442.887 54.5112C445.338 57.7375 440.641 63.9452 439.363 66.4693C434.99 66.0254 430.419 65.608 425.715 65.7008C420.764 65.744 415.848 66.5346 411.134 68.046C408.749 68.8344 398.573 74.9294 398.182 74.8499L393.544 70.3582L383.845 65.4888L383.792 65.9989L383.222 66.5488L395.651 77.0693L393.756 78.2287C388.642 74.353 385.117 72.0012 377.505 70.0203L376.22 70.1197C380.665 73.1804 385.144 75.9828 389.616 78.7918L390.51 79.9975C387.317 81.3424 385.965 84.1382 383.269 85.8739C379.055 83.8599 375.153 82.0314 370.045 80.4878L369.688 81.5345L379.254 87.6958L379.771 87.656L378.121 88.7955C377.359 91.3594 375.869 94.334 374.623 97.9513C369.853 101.834 363.672 101.602 362.711 109.512C361.188 109.929 360.114 110.062 358.723 111.082L358.617 112.109C359.492 113.328 367.236 116.607 369.085 116.925L370.224 115.826L370.218 115.832ZM426.795 61.1362L427.504 61.2687L426.557 61.1494C426.391 61.1494 426.225 61.1627 426.066 61.1693C426.815 59.778 429.014 59.4335 431.128 59.5859L430.982 60.5929L426.848 60.7983L426.795 61.1362ZM429.75 62.9713L431.737 62.322C432.599 60.891 433.089 59.3739 432.652 57.9893C430.604 57.5852 429.425 58.082 427.511 58.8903C427.162 59.4568 426.815 60.0243 426.47 60.5929L426.073 61.2554C426.195 61.3976 426.328 61.5305 426.47 61.6529C427.12 62.1829 427.901 62.3684 429.339 62.2492C429.737 62.9249 429.273 62.6268 428.564 62.8123L429.756 62.9713H429.75ZM478.795 78.3612L476.661 78.7587L477.973 78.6659L479.477 79.3152L477.198 83.4889C478.371 82.1043 479.537 81.1238 480.034 79.0237L478.795 78.3612ZM466.538 145.042C466.008 144.094 465.432 143.472 464.856 143.326C465.366 143.81 465.955 144.379 466.538 145.042ZM459.794 165.553L458.111 166.533L459.403 166.414L459.801 165.553H459.794ZM466.538 145.042C468.254 146.976 469.54 150.686 469.169 153.588C471.116 149.381 468.897 146.758 466.538 145.042Z" fill="#2CBF44"/>
</g>
<defs>
<clipPath id="clip0_544_95">
<rect width="159" height="159" fill="white" transform="translate(355 51)"/>
</clipPath>
</defs>
</svg>
