<svg width="159" height="159" viewBox="0 0 159 159" fill="none" xmlns="http://www.w3.org/2000/svg">
<g clip-path="url(#clip0_27_107)">
<path d="M7.55244 61.5793L8.67869 63.2554C6.42619 63.1892 4.06769 62.9705 3.61719 62.0033C3.61719 61.9569 3.63044 61.9105 3.64369 61.8642C4.90244 61.5329 5.98231 61.513 7.55244 61.5793ZM19.5172 66.6805L20.0604 68.3368L18.7884 68.3898L19.0932 66.6938C19.2389 66.6938 19.3714 66.6938 19.5172 66.6805ZM23.8499 78.7712C22.7237 79.8047 21.8558 80.4937 21.1867 82.0638C20.2592 81.3019 19.7756 79.7914 19.4774 78.102C19.1462 76.2603 19.0402 74.2132 18.7884 72.6828L18.8679 71.901L20.1731 71.8083L23.4988 78.102L23.8499 78.7645V78.7712ZM22.1672 63.2554C22.3324 62.124 22.5024 60.9934 22.6773 59.8634L23.1079 59.8369C22.7899 60.9764 22.4719 62.1159 22.1672 63.2554ZM21.2596 47.8722L27.2221 49.4887C27.2123 49.5769 27.2035 49.6652 27.1956 49.7537C24.4197 51.8074 21.8558 52.7084 20.4778 56.4184L21.0012 48.1637L21.2596 47.8788V47.8722ZM26.8246 39.3259C26.4403 43.1684 26.9836 44.8644 27.6527 47.2494C28.7127 48.0047 29.1367 48.4618 28.7922 49.5814C27.0034 48.6937 25.1087 47.7662 22.3659 47.9119C22.2991 47.8352 22.2328 47.7579 22.1672 47.68C22.9357 44.6524 24.4329 42.7908 25.5923 40.3925L26.8312 39.3193L26.8246 39.3259ZM35.3973 34.2114L35.6557 34.1915C34.8342 37.027 34.5029 43.5659 33.0653 46.1629C29.6667 44.553 29.7329 37.5769 33.5357 34.8209L35.3973 34.2114ZM32.2306 55.2127L35.0926 58.3198C33.9663 61.778 31.8397 64.3817 30.9387 68.3898L29.2493 68.2573C27.8051 64.2227 31.4157 57.6507 32.0318 54.7092L34.6818 55.0139C35.0131 55.842 35.3311 56.6702 35.6557 57.5049L32.2306 55.2127ZM40.0613 34.1849C39.7698 37.5438 40.5118 39.2862 40.7106 41.8832C39.0278 42.7444 37.3384 43.5924 35.6557 44.447C35.9682 40.9702 36.8012 37.56 38.1268 34.3307L40.0613 34.1849ZM42.0223 29.0837L42.3999 29.0572L41.8302 30.6935L40.7106 30.7664L41.5718 29.7528L42.0223 29.0837ZM42.3999 44.7518L37.3384 47.8655C37.4444 45.984 39.8427 43.4467 41.8501 42.7444L42.3138 42.9962L42.3999 44.7518ZM45.7787 32.9725C45.4673 34.7083 45.1626 36.4374 44.8644 38.1732L43.9171 38.7694L43.4136 39.3193C42.4993 38.034 42.2674 34.8805 42.4662 32.4823L45.7787 32.9725ZM49.1442 29.0638C49.1442 29.13 49.1309 29.183 49.1243 29.236L47.8324 30.4749C46.9712 30.8062 46.8652 30.7929 45.7787 30.7532C45.9178 30.19 46.0768 29.6269 46.2292 29.0638H49.1442ZM52.5229 22.2268L51.0124 25.6387L45.7787 25.261L45.7986 24.9828C47.9517 23.989 49.8398 22.8098 52.5163 22.2202L52.5229 22.2268ZM49.7934 31.1043L50.3499 30.773L50.8336 32.4823L49.1442 32.151L49.7934 31.0977V31.1043ZM54.2057 36.1592C52.1983 36.9409 49.4224 36.7223 47.8126 37.6167C47.6969 36.9318 47.5799 36.2473 47.4614 35.5629L48.5082 34.1915C50.2108 34.854 51.9134 35.5298 53.6094 36.1989L54.2057 36.1592ZM49.8928 39.2332L47.6006 39.3193C47.5476 39.0808 47.5078 38.8423 47.4614 38.5972C49.0713 37.9413 51.7743 37.8817 54.2057 37.61L51.6418 39.0212L49.8928 39.2332ZM55.8884 39.2332C53.9606 39.7168 52.1122 41.4194 50.8468 42.7444C50.6017 41.1942 53.5763 38.4647 55.0007 37.61C55.6301 38.1732 55.6963 38.1135 55.8884 39.2332ZM59.2672 18.8083L59.2407 19.0733L57.2134 20.2989L54.2057 20.5175L54.2322 20.2525L59.2672 18.8083ZM56.5377 23.936L55.8884 22.9754C57.4122 21.6968 60.7711 22.399 62.6393 22.5912L56.5377 23.936ZM71.6294 18.901C74.4451 19.1329 77.0222 19.7954 78.9832 21.021L79.4999 20.9879L79.1886 21.4252L76.4922 22.2202C74.8691 21.9949 73.2459 21.7564 71.6294 21.5245L60.9499 20.0074L60.9764 19.7888C64.4629 18.9607 68.0543 18.6637 71.6294 18.9077V18.901ZM82.8456 18L82.2493 18.8083C80.6327 18.6927 79.0872 18.0975 77.8106 17.099L82.8721 17.7417L82.8456 18ZM91.8291 24.3203L93.2269 23.7903L94.6778 25.0358C94.4791 26.4602 93.1077 27.6262 92.0543 29.0108L91.2461 29.0638C89.0466 25.42 86.2707 21.4384 81.4013 20.0339L81.1893 19.6033L83.1569 18.8083C86.4628 19.961 89.2188 21.71 92.2862 22.717C92.6837 23.6777 92.5578 23.353 91.8224 24.3203H91.8291ZM95.8968 32.4227L95.5126 32.045L94.6778 32.1047L96.0691 30.7797L95.8968 32.4227ZM97.3874 51.2907C99.6664 53.2649 100.249 56.1269 99.3021 59.8369C98.3216 57.6374 97.3477 55.4313 96.3606 53.2318C96.6918 52.7415 97.0032 52.2513 97.3278 51.761C97.3477 51.602 97.3609 51.443 97.3874 51.2907ZM98.0499 35.9207L98.0234 36.2387L96.8243 37.61L96.3606 36.7024C97.0827 35.4105 96.5593 36.1062 97.5067 35.9737L98.0499 35.9207ZM99.4544 35.9008L104.794 37.8817C104.788 38.0605 104.768 38.2394 104.748 38.4117C104.297 38.723 103.847 39.0212 103.396 39.3193L98.0499 37.345L98.0963 36.8084L99.4544 35.9008ZM109.856 42.7444L106.894 40.7768L106.484 39.9818C107.769 39.1868 107.583 39.2265 108.941 39.4915C109.24 40.578 109.551 41.6645 109.856 42.7444ZM111.538 42.0952L110.942 42.7444C110.227 42.3734 110.101 41.903 109.856 41.0285L111.399 41.7043L111.538 42.0952ZM110.28 37.1993L109.856 37.2324C110.319 36.7885 110.783 36.3447 111.26 35.9074C110.929 36.338 110.598 36.7687 110.28 37.1993ZM118.289 45.7985L117.461 46.1629C115.956 45.3197 114.452 44.4739 112.95 43.6255C112.478 42.986 112.008 42.3456 111.538 41.7043C113.877 39.9818 113.963 41.9825 116.169 43.0757L118.289 45.7985ZM119.972 47.309L118.289 46.6929L119.303 46.1629L119.972 47.309ZM117.918 50.065C118.528 51.2907 118.528 50.9462 119.972 50.7607L117.382 52.9999L114.911 48.2829L114.944 47.9914C116.766 47.6005 117.349 48.2564 119.131 48.5214L119.813 49.6212L117.918 50.065ZM118.289 53.1324L121.661 51.2907C120.986 52.8144 120.105 53.5962 119.064 54.7092L118.289 53.1324ZM125.034 59.658C124.119 60.4464 123.523 60.6982 121.794 60.8439L123.185 60.9963L123.159 61.2414L118.409 63.2554L118.289 57.1604L121.562 53.2848L122.158 52.9999L125.034 59.658ZM123.344 50.3035C132.659 47.7065 130.857 52.6488 126.703 56.4184C125.577 54.3845 124.457 52.344 123.344 50.3035ZM131.778 51.2907C128.346 67.4159 127.684 68.297 115.547 75.2268C115.348 74.9022 115.129 74.5842 114.911 74.2662L115.341 72.4642C123.258 70.2117 127.756 66.0644 127.286 56.6768L131.254 51.5755L131.778 51.2907ZM132.189 51.2907C132.056 50.7342 131.924 50.1777 131.778 49.6212L133.037 49.5814L132.189 51.2907ZM111.538 66.972L111.658 65.1899L111.764 63.6662L112.93 63.2753C112.989 63.2753 113.042 63.262 113.095 63.2554C113.427 65.276 113.095 66.7667 112.433 68.3898C111.863 68.0254 111.75 67.873 111.538 66.972ZM104.794 81.9313L104.821 81.6332L107.033 76.3398L107.497 75.2268L111.393 75.4918C111.452 75.7833 111.492 76.0682 111.512 76.3398C111.684 78.3538 110.989 79.9637 110.273 82.0638L104.794 81.9313ZM106.484 88.7948L106.53 86.1448L106.596 85.4823L109.445 85.6943L109.856 85.6612C109.2 86.741 108.551 87.8209 107.908 88.9074L106.484 88.7948ZM104.814 77.731L104.986 77.6449L106.331 76.9493L106.484 76.936L106.285 77.6449L105.496 80.3545L104.794 77.943L104.814 77.731ZM102.184 86.2442L101.422 85.4823C102.164 85.999 101.68 85.4955 102.184 86.2442ZM98.0499 84.2103C98.9973 83.614 100.024 83.7995 101.429 83.8128L101.011 85.1842C99.8519 85.6479 99.6863 85.4757 98.3812 85.3365L98.0499 84.2103ZM100.117 90.61L101.422 93.6973C100.415 94.3797 99.4014 95.0554 98.3944 95.7444C97.4934 94.5055 98.4739 91.0407 100.117 90.61ZM96.7846 79.8775L96.3606 79.9107L96.9171 78.6453L96.7846 79.8775ZM101.641 80.3545L101.422 80.2154L102.164 78.6519L102.409 78.6453L103.111 80.2883L101.641 80.3545ZM113.321 58.1277L113.228 57.5513C113.672 57.008 113.957 56.6702 114.718 56.425L114.917 57.432C114.586 57.6507 114.255 57.8627 113.93 58.0879L113.321 58.1277ZM113.228 62.3014C112.923 62.7055 112.38 62.9308 111.996 63.2554L111.538 54.7092L113.228 62.3014ZM110.134 73.7627C111.247 73.1399 111.406 73.7163 111.538 75.2202H108.166L108.226 74.6902L110.134 73.7627ZM108.478 69.039L109.24 68.3898L109.856 69.4895L109.571 70.099L108.166 69.9334L108.478 69.039ZM108.166 73.5705L106.411 75.2268L105.265 75.0347L104.801 75.081C105.066 74.5577 105.344 74.0343 105.616 73.5175L108.166 73.5705ZM101.806 72.5967C101.104 72.1064 101.608 72.1727 101.475 71.8017L101.806 72.5967ZM107.12 64.9647L101.422 62.0099C101.687 58.1012 102.164 53.6094 101.78 49.5814C106.172 51.1714 110.114 58.3198 107.12 64.9647ZM103.111 64.9647C104.509 65.7067 104.436 66.3824 106.378 66.9787C106.715 68.244 106.199 68.7475 105.39 70.0924L103.323 70.0129C102.899 67.7604 103.363 66.4685 103.111 64.9647ZM103.496 76.0218C102.787 75.5315 103.297 75.5978 103.164 75.2268L103.496 76.0218ZM114.911 59.5653L114.93 59.2473L116.454 58.1277C116.719 59.8767 116.62 62.7917 116.222 64.9647C115.321 64.2624 115.156 61.2944 114.911 59.5653ZM114.911 64.9647C115.255 64.3949 115.6 63.8252 115.931 63.2554L115.335 64.9382L114.911 64.9647ZM124.749 59.8568L125.034 59.8369C125.113 66.389 121.072 67.5815 115.759 70.0394L114.911 70.099L118.223 63.2355L124.749 59.8568ZM114.745 47.0573C114.798 47.2295 114.858 47.3952 114.904 47.5674L114.487 47.8722L113.221 46.1629L114.745 47.0573ZM113.221 49.906L113.268 49.6079C113.391 49.598 113.515 49.5892 113.639 49.5814L114.911 51.2907C113.93 50.8269 113.771 50.7143 113.221 49.906ZM114.904 54.2785L112.632 56.4184L107.749 49.3297L101.415 43.8309L102.807 42.7444C105.874 44.0694 111.24 46.5935 112.32 49.747C112.671 50.7739 111.459 51.6219 112.28 52.4765C113.261 53.4968 114.241 52.768 114.911 54.2719L114.904 54.2785ZM100.673 64.9647L101.19 65.17L101.415 70.099L100.627 69.9135C99.8851 69.3637 99.3683 66.8197 100.044 65.7133L100.673 64.9647ZM96.9369 73.5374L97.4802 73.5175L98.0433 74.8558L97.1821 75.187L96.3539 75.2268C96.5527 74.6637 96.7514 74.1005 96.9369 73.5374ZM95.3999 100.872L94.6712 98.3745C95.7113 98.0764 96.7448 97.7783 97.7849 97.4669L98.0499 97.4537C98.0363 97.5306 98.0253 97.6079 98.0168 97.6855L95.3999 100.872ZM92.9818 94.0352C93.2932 93.0282 93.5118 92.8758 94.0749 92.3193L94.5387 92.5048L94.6712 92.942L93.6311 93.9623L92.9818 94.0285V94.0352ZM93.7768 95.7444L92.9818 94.8699L94.6712 94.0352L94.2339 95.7113L93.7768 95.7444ZM92.0013 103.496C91.7628 103.31 91.5376 103.118 91.2991 102.919L91.8158 102.886L94.4194 100.872L94.6712 102.926L92.6771 104.291L92.0013 103.496ZM92.1338 123.079C88.0727 123.251 85.6413 122.218 82.3288 121.926L78.5327 114.42L77.8039 113.665C84.1772 112.91 88.1853 109.836 92.9089 107.709C94.5784 109.299 98.3613 117.395 95.0289 120.979C94.2339 122.205 93.3462 122.331 92.1338 123.079ZM74.6968 114.646L76.2206 114.546C78.5194 116.09 80.0829 118.852 81.1827 121.39L74.4318 119.435C74.9353 117.726 75.1473 115.99 74.6968 114.646ZM69.8473 108.193L77.4528 106L89.4043 107.166L89.6163 107.769C86.0587 109.372 82.0108 110.724 77.9298 112.791C73.5109 113.142 72.4443 111.492 69.3836 110.406L69.8473 108.193ZM69.3769 116.249L69.5293 114.765L72.4377 114.546C72.6762 115.838 72.9279 116.56 72.5702 117.965L69.3769 116.242V116.249ZM65.9982 118.925L67.1311 118.303C68.5223 117.382 69.5624 118.607 71.0597 119.091L70.4634 119.674L65.9982 118.925ZM69.2776 116.255C68.91 116.092 68.5435 115.926 68.1778 115.759L67.6876 114.546L69.3769 114.652L69.2776 116.255ZM64.3154 116.255L66.0048 117.706C66.0048 118.601 65.9253 118.501 65.7199 119.674L64.3154 116.255ZM59.9429 109.849C61.5263 109.365 63.6331 109.471 66.0048 109.418L63.7987 111.128L59.2606 110.684L59.9429 109.849ZM55.8884 24.1679C59.0221 21.1734 66.8793 22.0678 68.8469 23.9692L69.3769 23.9228C66.7601 26.3674 62.7056 26.6457 60.2146 29.0638C58.2602 27.7653 56.6437 26.9305 55.8884 24.1679ZM73.1134 29.0638L74.4384 30.5677C73.2592 30.6339 72.0203 30.7068 70.7814 30.8128C67.9923 31.0513 65.2363 31.4687 63.3084 32.469L63.0567 32.4823C62.9173 32.2638 62.7782 32.0452 62.6393 31.8264C65.804 30.1663 69.2977 29.2296 72.8683 29.0837L73.1134 29.0638ZM79.6854 20.5175C81.8651 22.7038 85.1179 24.0023 86.2442 27.3545C81.6729 25.2279 74.6372 25.261 71.0729 21.8757C74.2132 22.5448 76.8897 22.293 79.6854 20.5175ZM81.1893 32.4823L87.4433 33.3435L87.9336 33.3038L82.9184 37.61C82.1234 36.0267 81.9379 33.8802 81.1893 32.4823ZM89.2254 39.7963L87.9336 39.5975L89.6163 39.3193L89.2188 39.7963H89.2254ZM87.9336 35.7087L89.4772 34.1915L89.6163 35.9008L88.4967 35.6557L87.9336 35.7087ZM90.9943 92.2862L90.2523 92.3193L89.6163 91.723L90.1066 91.0804L91.2991 90.6167L90.9943 92.2862ZM89.6494 95.4132C89.8482 95.1747 90.0602 94.9362 90.2722 94.6977L90.3252 94.0352L91.3057 95.592L89.6163 95.7444L89.6494 95.4132ZM88.9803 100.872L87.9336 99.6134L91.3057 99.1629L89.6958 100.819L88.9803 100.872ZM89.6163 106L86.2442 105.596L88.6292 104.291L89.6163 106ZM87.2512 101.177L87.9336 101.826L85.4889 102.449L82.8721 102.581L86.5158 100.872L87.2512 101.177ZM77.8172 27.3545C79.7848 27.4075 81.8651 27.9044 82.8721 29.0638C81.5139 28.9313 79.0693 29.1499 78.4532 28.1032L77.8172 27.3545ZM79.5264 34.1915C80.4871 35.0329 80.8249 36.0267 80.6527 37.61C79.1687 37.0999 79.5529 35.4768 79.5264 34.1915ZM81.1827 44.9704L81.2423 44.6789C84.6012 43.9502 85.3233 45.1162 83.7929 46.1629C82.4679 45.9774 81.8651 45.4805 81.1827 44.9704ZM85.5088 88.9008L86.2442 89.0863C86.2344 89.1657 86.2256 89.2452 86.2177 89.3248L84.5614 90.61L85.2504 88.9207L85.5088 88.9008ZM84.5813 47.203L85.8401 46.1629L86.2442 47.8722L84.5614 47.5012L84.5747 47.203H84.5813ZM89.6163 92.9155L85.5419 93.9822L84.5614 94.0285C84.5614 93.9755 84.5747 93.9159 84.5879 93.8629C86.1117 93.5582 87.0922 93.0547 87.9932 92.3193L89.4242 92.5843L89.6163 92.9155ZM86.7079 88.9008L86.2442 87.9534L87.4036 87.1915L87.9336 87.4764L87.2711 88.8544L86.7079 88.9008ZM76.1278 100.726L78.1352 99.1629L84.3494 99.6929L84.5614 100.157L80.3612 102.581C78.8043 102.323 77.4594 101.634 76.6512 100.687L76.1278 100.726ZM73.0074 100.872L76.1212 102.581L71.0663 101.687C71.7156 101.422 72.3582 101.144 73.0074 100.872ZM72.7557 104.364C72.7485 104.5 72.7418 104.637 72.7358 104.774L71.7752 105.304L71.0663 105.397L71.0928 104.986C71.8282 104.012 71.7023 104.337 72.7491 104.364H72.7557ZM64.8057 34.7812C64.646 34.6097 64.4848 34.4397 64.3221 34.271C65.9982 33.3568 68.6416 32.9195 71.2386 32.7142C73.3784 32.5353 75.4852 32.5154 76.9957 32.4823L77.8172 37.61C75.6111 37.3715 73.5109 37.08 71.2386 36.9807C69.2751 36.8833 67.3069 36.9543 65.3556 37.1927C65.1759 36.388 64.9926 35.5842 64.8057 34.7812ZM67.2834 103.383L67.6942 104.112L67.2967 105.642L62.6393 106C63.1362 104.476 63.8782 103.741 64.6798 102.581L67.2834 103.383ZM61.5329 97.4537C59.4129 97.3344 56.5112 95.7842 55.8884 94.0352L62.6393 95.751L61.5329 97.4537ZM63.9047 97.3609L62.6393 97.4537L62.6791 97.0429L64.0836 95.7444C64.0173 96.281 63.9643 96.8177 63.9047 97.3609ZM59.2672 34.8408L61.3209 34.1915L62.6393 35.8478L61.2481 35.9008L59.2672 34.8408ZM59.2407 108.246C59.1281 108.617 59.0287 108.994 58.9227 109.372C58.7571 109.379 58.5914 109.399 58.4324 109.418C58.1484 108.848 57.8636 108.278 57.5778 107.709L59.2672 107.881L59.2407 108.246ZM60.1748 100.872L64.1101 101.667L64.3221 102.197L61.2679 106L57.5778 105.457L60.1748 100.872ZM89.6163 47.2892L90.3782 46.1695L90.6564 46.1629L92.7764 46.6929L92.9884 46.9977L90.6233 47.8722C90.2881 47.6771 89.9524 47.4828 89.6163 47.2892ZM94.1809 41.7639L92.9884 41.0352C94.2008 41.479 93.5052 40.9755 94.1809 41.7639ZM93.7967 49.5814L92.9884 48.8924L94.6778 47.8722L93.7967 49.5814ZM92.9884 61.5462L95.6119 62.1954C96.3208 62.4737 96.3009 62.5465 96.3606 63.2554C95.2343 62.8248 93.3528 62.5267 92.9884 61.5462ZM93.2534 56.8888L93.6112 56.425L94.6778 58.1277L92.9884 57.7964L93.2534 56.8888ZM59.0883 113.142L59.2672 113.592L56.9948 114.46L55.8884 114.546L55.9149 114.314L56.6901 113.102C57.7633 112.605 57.7898 112.93 59.0883 113.142ZM54.2057 27.3479C55.6764 28.4477 56.0607 29.7992 55.8288 34.1915C54.8616 32.9527 54.2719 30.3225 54.2057 27.3545V27.3479ZM55.1729 23.936L55.0537 25.1749L54.2123 25.2345L55.1796 23.936H55.1729ZM54.2057 25.6453C54.1593 26.056 54.1262 26.4668 54.0732 26.8775L52.5163 26.5927L53.8016 25.6718L54.1991 25.6453H54.2057ZM54.2057 124.808L55.0404 116.103L60.9499 114.546L54.7357 124.49L54.2057 124.808ZM54.6231 101.409L55.5307 100.872C56.3588 101.853 55.6168 103.264 54.8351 104.291C54.1858 103.681 54.1129 103.297 54.2852 101.912L54.6231 101.409ZM49.1442 100.574L51.0853 97.4537L54.1991 99.2822C53.1391 100.952 52.0592 102.621 50.9859 104.291C50.0187 103.429 49.4224 102.164 49.1442 100.581V100.574ZM49.1442 113.963L52.2579 111.128L53.7221 111.26L54.2057 112.055C54.0732 112.89 53.9539 113.718 53.8347 114.546L49.1442 113.963ZM44.0893 111.644L47.7993 109.418L50.6216 109.862L50.8336 110.253L47.8589 112.837C46.3749 112.685 45.3878 112.287 44.6127 111.611L44.0827 111.644H44.0893ZM43.5924 108.339L44.9506 107.709L45.5336 107.835L45.7721 108.113L41.8434 109.418L40.7172 109.021L43.5924 108.339ZM39.0278 106.735L40.0216 104.33C41.8633 104.092 42.3006 105 43.6852 105.576L44.0827 106.185L42.0223 107.597L40.3462 107.709L39.0278 106.735ZM35.6491 113.751L38.1069 109.418C39.7367 109.418 39.9354 109.551 40.6046 110.412C40.9027 110.916 40.6443 110.644 39.9951 110.757L39.8427 112.247L42.3999 112.645C41.8964 113.897 41.8169 113.731 41.0617 114.526C38.5442 114.659 37.4047 114.182 35.6491 113.751ZM32.8136 107.709L37.0999 109.001L37.3384 109.511L34.5891 112.837L30.5942 111.525L32.8136 107.709ZM16.2974 103.085L16.3504 102.575L18.7421 104.417L18.9474 104.907C13.9721 108.749 21.5842 121.271 30.2431 113.155L33.9663 114.652C32.5353 117.203 30.0774 118.21 27.4871 119.654C21.2927 120.171 12.6272 110.054 16.2974 103.085ZM22.0744 104.834L22.1672 105.993C21.7034 105.642 21.2397 105.304 20.7892 104.953L20.4778 104.284L22.0744 104.834ZM30.5942 112.095L27.5136 114.48C21.4451 115.116 18.9872 110.916 18.7884 105.755L19.9743 104.324L20.4911 104.284C23.5452 106.689 26.2482 110.359 30.3954 111.572L30.5942 112.095ZM24.7178 87.1849C24.1679 86.7874 24.1348 86.5887 23.8566 85.9129L25.0093 81.5272L26.3542 80.3479L27.2221 81.6199L24.7178 87.1849ZM23.8566 88.6623L26.5132 82.3752L27.0564 82.0572C28.2821 84.2169 30.0576 85.1974 30.5942 88.1323L26.5927 92.3127C25.3484 91.3857 24.3964 90.1211 23.8499 88.6689L23.8566 88.6623ZM28.9114 93.896L32.2902 90.6034L33.9663 94.0285C32.2836 93.9755 30.6008 93.9358 28.9114 93.896ZM37.3384 59.3467C35.7418 62.7585 33.6152 65.0773 32.3432 68.3832C31.7867 65.382 35.1389 61.0692 36.2188 58.4192L36.7356 58.121L37.3384 59.3467ZM37.3384 49.9392C39.8493 49.164 41.5321 47.7463 43.3274 46.1563L44.0893 48.4353L41.9561 51.284L37.3384 49.9392ZM45.7721 50.118L44.8578 51.284L44.0893 51.1515L44.1026 50.966L45.6396 49.5748L45.7721 50.118ZM44.4471 42.751L44.7121 42.7378L45.7721 44.9704L45.3746 46.1563C43.8309 45.348 43.8906 44.3874 44.4471 42.751ZM44.1291 92.3127L45.6859 93.4323L44.0893 92.73C44.0983 92.5905 44.1115 92.4513 44.1291 92.3127ZM44.1026 94.0285L45.7721 94.7507C45.7621 94.8168 45.7533 94.883 45.7456 94.9494L42.1681 97.447C41.1412 96.9833 41.0153 96.0624 40.7106 95.062L40.7437 94.85L44.1026 94.0285ZM39.1139 90.6034L40.7172 91.2527L39.8559 91.7495L39.0278 91.8423L39.1139 90.6034ZM39.0278 56.4184C41.0551 56.9882 40.4124 56.6039 40.4986 58.121C39.5711 57.5778 39.5048 57.326 39.0278 56.4184ZM39.0278 86.953L39.1669 85.4757C39.9553 86.0255 40.2269 86.3502 40.7172 87.1849C40.1542 87.1064 39.5911 87.0291 39.0278 86.953ZM42.4066 65.6007C41.7706 66.4155 41.7971 66.1969 40.7172 66.6673L41.4526 64.958L42.4066 65.6007ZM42.4066 58.7239L41.3466 59.8303C40.2866 59.234 40.7834 59.4725 41.2604 58.3662L41.8898 58.121L42.4066 58.7239ZM42.2674 55.8155L40.7172 54.7025C41.9097 55.1597 41.6314 54.8814 42.2674 55.8155ZM39.0278 87.1849L40.7172 88.5298C39.8559 88.5099 39.3922 88.3244 39.0278 87.1849ZM44.0893 87.1187L43.4003 87.1849L42.8107 86.0984L42.3999 85.5684L43.3142 85.4757C43.5726 86.0255 43.8243 86.5754 44.0893 87.1187ZM43.1618 55.4644L42.3999 54.7092C43.1419 55.2259 42.6517 54.7224 43.1552 55.471L43.1618 55.4644ZM43.2612 83.6207L42.3999 81.8319L42.7643 80.3612L42.9763 80.3479L44.0893 83.7664C43.8134 83.7174 43.5373 83.6688 43.2612 83.6207ZM38.8423 103.516L39.0278 103.741L38.4249 106C37.7154 105.705 37.0906 105.239 36.607 104.642C36.1235 104.045 35.7965 103.337 35.6557 102.581L38.8423 103.522V103.516ZM33.9663 106L35.6557 107.497C34.5758 107.02 34.5096 107.04 33.9663 106ZM36.8813 90.8419L37.0801 92.3193L35.6557 90.61L36.8813 90.8419ZM35.2118 98.8383L33.9663 95.7444C35.4437 96.3075 36.5964 97.9969 37.3451 99.1629L35.2118 98.8383ZM36.5368 68.403L36.9542 68.3898L35.7219 70.099C35.5232 69.675 35.7683 69.2709 36.4507 68.774L36.5368 68.403ZM35.6557 83.0973L35.3178 83.773L34.3506 83.0244C34.2223 82.7529 34.0942 82.4812 33.9663 82.2095L35.2913 82.0638L35.6557 83.0973ZM23.8499 97.4537C27.2287 99.6532 32.9726 101.694 33.9663 106C29.9604 103.999 26.4916 101.069 23.8499 97.4537ZM32.6148 95.7974L33.9663 97.4537L30.5942 95.7444L32.6148 95.7974ZM44.9638 100.872L42.3999 98.2884L46.8851 94.0352L47.4614 98.719L44.9638 100.872ZM47.4614 103.728L47.9053 102.615L48.5016 102.581L49.1442 104.291L47.4614 103.728ZM49.7338 97.4537L49.1442 95.7444L50.3698 95.9697L49.7338 97.4537ZM47.4614 39.8824L47.4747 39.73C48.0312 39.5975 48.5877 39.465 49.1442 39.3193L47.9782 41.0285L47.4614 39.8824ZM30.4551 75.2268L28.9114 71.8083C30.8923 72.2389 30.5677 73.65 30.4551 75.2268ZM26.3277 76.936C24.8834 75.9357 23.9626 73.9415 23.8499 71.8083C26.8113 72.5039 26.6457 73.6699 27.2287 76.3729L26.3277 76.936ZM24.5853 68.0122C22.4322 65.9783 25.5658 57.8428 26.9438 55.9679C27.6726 55.047 28.5868 55.0669 29.7926 54.7092L30.5942 54.9145C28.5669 58.5053 27.2022 63.3945 26.7186 68.3898L24.5853 68.0122ZM21.4384 95.7444L22.4653 97.4735L21.5444 99.6267L21.0144 100.19C21.7697 100.296 21.9419 99.6465 23.0682 98.7257C25.2544 102.27 28.5934 105.662 32.2769 107.59L30.2696 111.128L24.1746 107.206C23.4789 105.914 24.4396 104.43 23.3199 103.641C22.3063 102.926 21.0012 103.959 19.9677 103.648L17.1057 101.025C17.9471 99.143 18.7553 97.3013 20.4182 96.3407L21.4384 95.7444ZM15.6084 76.8897C15.8384 75.1847 16.168 73.4946 16.5956 71.8282L16.8208 71.8083L17.7019 76.8897L18.1657 79.5397C19.4907 83.2364 20.8289 86.9265 22.1672 90.61C18.9607 88.861 16.9798 84.8132 17.2647 79.3674C16.4962 81.123 17.1322 83.8857 17.3839 85.4359C15.4163 83.7664 15.1712 80.4473 15.6084 76.8897ZM12.6802 78.6453C12.3738 77.9985 12.1811 77.3038 12.1104 76.5915C12.0161 75.6327 12.025 74.6666 12.1369 73.7097L12.4284 73.1002L13.7336 71.8083L12.9982 76.5849L12.6802 78.6387V78.6453ZM130.088 95.7378L126.716 94.4393L129.989 94.0352L130.088 95.7378ZM40.8497 123.563L41.7308 123.099L40.7106 124.802L40.8431 123.569L40.8497 123.563ZM15.4163 64.9713L13.9787 64.8388C12.1899 64.2492 10.5138 62.1623 10.3614 59.8435C13.0976 60.0887 14.0251 61.3872 15.3766 62.9705C15.3898 63.633 15.4097 64.3022 15.4163 64.9713ZM15.2176 64.8322C15.4163 61.142 12.6007 58.8365 8.94369 58.9359C9.56644 53.7552 14.0714 51.1052 18.0862 49.3628L18.8613 49.3032C18.1922 55.8089 18.7023 61.4137 16.2709 67.0449C14.4756 71.1922 8.10894 71.1127 8.45344 77.5124L8.49981 78.0424C9.40744 86.5489 18.6559 88.278 19.9346 95.7577C6.22081 102.734 22.9357 132.049 33.7808 114.831C35.7286 115.109 37.4577 115.99 39.8758 115.142C41.0021 114.52 41.2207 114.016 41.6579 112.718L45.5336 114.725L45.7323 115.215C42.1813 117.971 39.6771 121.754 35.8611 124.338L36.2254 123.291L35.2317 123.112L34.6818 123.41L34.1849 125.729C36.3646 127.955 42.9697 119.906 44.9042 118.329C43.8111 122.152 41.1081 124.119 39.6042 127.617L40.0679 128.094C42.9167 126.054 46.4081 120.277 46.9381 115.884L51.2046 116.593C45.8582 123.821 32.1246 139.721 24.9033 143.968C26.0031 140.516 27.7521 137.879 28.6398 135.044L28.1231 135.084C27.969 134.924 27.8145 134.765 27.6593 134.607C25.9037 138.065 23.0086 140.496 22.4918 145.16C22.8005 145.623 23.1912 146.024 23.6446 146.346C32.2306 144.915 46.5671 123.338 53.4173 117.441C51.5623 136.058 41.5851 138.959 32.9328 150.235C40.7967 146.313 45.5667 136.309 52.2911 130.758C51.5491 138.529 49.7007 155.906 45.0499 159L45.8184 158.94C51.0389 155.694 51.3437 142.345 53.0861 135.521L53.8281 128.346L61.2812 117.879L61.8244 117.58C62.6592 120.197 66.4354 123.039 70.5231 122.278L73.4579 121.045L80.8249 123.801C81.7922 134.401 81.4212 140.344 74.7101 148.413C81.5669 144.909 84.0844 131.407 81.7988 124.239C97.7452 126.087 97.1026 120.707 94.0816 109.094L96.8839 109.14C96.3672 108.365 94.9693 108.941 93.9027 108.345C93.4191 108.034 93.5118 108.093 93.2137 107.63C97.0032 103.357 106.132 107.603 104.211 114.699C106.835 108.816 101.038 103.582 95.4529 105.689C97.8379 102.86 100.726 100.534 102.237 96.7912L102.78 96.4997L115.898 110.28L116.673 110.22L117.269 109.412C113.095 104.47 108.928 99.5207 104.768 94.5718L106.106 93.9623C106.402 93.6571 106.765 93.4256 107.167 93.2863C107.568 93.1471 107.997 93.1041 108.418 93.1607C108.197 93.0508 107.976 92.9404 107.756 92.8294C114.453 93.4985 123.013 99.0834 130.002 97.2814C130.645 96.1618 130.678 95.5589 130.287 94.4658C137.734 94.6513 151.129 92.1603 155.396 88.543C143.935 90.9479 131.029 91.7628 120.509 90.3583L111.187 89.2652L110.664 89.3049L113.175 84.7999C120.86 84.6542 141.013 84.462 145.087 79.639L144.186 78.4333L140.675 77.9298C140.37 78.3803 140.324 78.8043 140.278 79.2349L143.06 79.533C137.018 81.0568 120.191 84.2699 114.699 82.395C114.122 81.6928 114.546 79.2548 114.573 77.4992C114.583 77.185 114.569 76.8706 114.533 76.5584C122.43 74.1999 128.293 68.8867 130.698 60.8704C132.069 56.2793 131.162 50.2505 134.13 47.3885C136.024 47.5542 136.409 48.3558 137.8 48.899C137.065 47.8788 136.011 47.309 134.693 46.8453L132.222 48.5479C129.963 49.4224 127.597 47.1368 123.762 48.9189C120.648 46.2557 118.892 42.0488 114.685 40.4389L114.255 39.7102L119.356 34.748C117.686 36.1459 115.984 37.7955 114.281 39.4518L110.863 37.9214L110.664 37.4245C114.559 34.6685 118.018 33.6483 122.45 34.5228C122.655 34.9335 122.874 35.3377 123.086 35.7484C122.88 36.0995 122.695 36.1989 122.516 36.2983L121.025 35.9008C121.668 36.2784 122.337 36.3977 123.006 36.5169L123.569 35.967L123.656 35.1985C122.688 34.3373 122.39 33.7145 120.489 33.6483L121.396 32.31C119.223 33.8073 114.811 34.2048 112.651 35.5033L117.647 31.568L118.243 30.7664L109.001 36.2784C107.027 36.1459 104.927 35.2184 103.86 34.112C103.69 34.1251 103.52 34.1384 103.35 34.1518L114.321 26.7318L114.142 25.9832C109.982 28.4079 105.814 30.8327 101.661 33.264L97.6723 32.2835L98.0433 28.6994L126.643 6.24067L127.154 6.20092L126.749 5.2138C125.689 4.7103 121.337 8.24142 119.694 9.2948C113.36 13.3559 107.762 18.4108 101.535 22.081C104.105 18.8149 108.809 15.562 109.591 10.8053L108.332 10.6463L106.371 12.3158L108.504 11.3883C107.126 15.5819 100.885 23.0682 97.3609 25.4399L96.9502 24.4528C99.2424 20.597 101.502 15.4097 100.442 10.4608L98.5203 9.33455L96.4599 9.48692C97.7783 10.0103 98.6727 10.1362 99.6399 10.7788C100.256 15.5753 97.8976 18.8215 96.6256 22.7038L96.0823 22.9953C95.2343 21.4252 95.2873 20.6699 93.5449 20.385L93.3926 19.378L94.5851 17.7615L95.4066 17.1918C95.6848 17.7218 95.6981 17.5297 95.7842 18.4373C96.0284 18.0473 96.1634 17.5988 96.1751 17.1388L95.2012 16.7015L92.6241 19.431C90.4709 17.9934 88.0992 16.4829 85.0716 15.9198C86.7874 12.3622 92.0013 6.6448 89.3116 2.13317C86.0256 -3.35233 74.8094 2.96792 70.7019 7.32055C70.2254 7.80588 69.8114 8.34893 69.4697 8.93705C69.7347 8.72505 70.1587 8.3938 70.7019 7.98305C74.7564 4.96205 85.5486 -2.27245 87.8872 3.51117C90.3384 6.73755 85.6413 12.9452 84.3627 15.4693C79.9902 15.0254 75.4189 14.608 70.7152 14.7008C65.7643 14.744 60.8483 15.5346 56.1336 17.046C53.7486 17.8344 43.5726 23.9294 43.1817 23.8499L38.5442 19.3582L28.8452 14.4888L28.7922 14.9989L28.2224 15.5488L40.6509 26.0693L38.7562 27.2287C33.6417 23.353 30.1172 21.0012 22.5051 19.0203L21.2198 19.1197C25.6652 22.1804 30.1437 24.9828 34.6156 27.7918L35.5099 28.9975C32.3167 30.3424 30.9652 33.1382 28.2688 34.8739C24.0553 32.8599 20.1532 31.0314 15.0453 29.4878L14.6876 30.5345L24.2541 36.6958L24.7708 36.656L23.1212 37.7955C22.3593 40.3594 20.8687 43.334 19.6232 46.9513C14.8532 50.8335 8.67206 50.6017 7.71144 58.5119C6.18769 58.9293 5.11444 59.0618 3.72319 60.082L3.61719 61.1089C4.49169 62.3279 12.2363 65.6073 14.0847 65.9253L15.2242 64.8255L15.2176 64.8322ZM71.7951 10.1362L72.5039 10.2687L71.5566 10.1494C71.3909 10.1494 71.2253 10.1627 71.0663 10.1693C71.8149 8.77804 74.0144 8.43355 76.1278 8.58592L75.9821 9.59292L71.8481 9.7983L71.7951 10.1362ZM74.7498 11.9713L76.7373 11.322C77.5986 9.89104 78.0888 8.37392 77.6516 6.9893C75.6044 6.58517 74.4252 7.08205 72.5106 7.8903C72.1621 8.45678 71.8154 9.02433 71.4704 9.59292L71.0729 10.2554C71.1954 10.3976 71.3282 10.5305 71.4704 10.6529C72.1197 11.1829 72.9014 11.3684 74.3391 11.2492C74.7366 11.9249 74.2728 11.6268 73.5639 11.8123L74.7564 11.9713H74.7498ZM123.795 27.3612L121.661 27.7587L122.973 27.6659L124.477 28.3152L122.198 32.4889C123.371 31.1043 124.537 30.1238 125.034 28.0237L123.795 27.3612ZM111.538 94.0418C111.008 93.0944 110.432 92.4717 109.856 92.3259C110.366 92.8095 110.955 93.3793 111.538 94.0418ZM104.794 114.553L103.111 115.533L104.403 115.414L104.801 114.553H104.794ZM111.538 94.0418C113.254 95.9763 114.54 99.6863 114.169 102.588C116.116 98.3812 113.897 95.7577 111.538 94.0418Z" fill="#2CBF44"/>
</g>
<defs>
<clipPath id="clip0_27_107">
<rect width="159" height="159" fill="white"/>
</clipPath>
</defs>
</svg>
