<svg width="52" height="113" viewBox="0 0 52 113" fill="none" xmlns="http://www.w3.org/2000/svg">
<g clip-path="url(#clip0_1_4)">
<path d="M0.000385182 113V92.9075C0.000385182 92.0756 0.202606 91.4061 0.605892 90.8984C1.00995 90.3907 1.72523 90.1371 2.75174 90.1371H3.10534C3.62688 90.1371 4.06444 90.2033 4.41766 90.3366C4.77164 90.4699 5.05321 90.6569 5.2639 90.8984C5.47421 91.1395 5.62559 91.4309 5.71803 91.7721C5.81047 92.113 5.8567 92.4915 5.8567 92.9075V113H3.83719V106.211C3.83719 105.828 3.81215 105.487 3.76169 105.188C3.71085 104.888 3.6184 104.589 3.48397 104.289C3.34916 103.99 3.16389 103.665 2.92854 103.315C2.69281 102.966 2.39006 102.55 2.01951 102.068V113H0H0.000385182ZM2.0199 97.0756C2.07074 97.5414 2.17975 97.9992 2.34846 98.4486C2.5164 98.898 2.70167 99.3056 2.90389 99.6716C3.10573 100.037 3.29947 100.345 3.48436 100.595C3.66963 100.845 3.78711 101.003 3.83757 101.069V93.2068C3.83757 92.9242 3.78711 92.6748 3.68619 92.458C3.58489 92.2417 3.34107 92.1335 2.95396 92.1335C2.56685 92.1335 2.31456 92.2417 2.19669 92.458C2.07883 92.6748 2.0199 92.9242 2.0199 93.2068V97.0756ZM8.22942 93.1074C8.22942 92.6911 8.27603 92.3125 8.36847 91.9713C8.46091 91.63 8.61229 91.3349 8.82299 91.0854C9.0333 90.8356 9.31525 90.6402 9.66846 90.4989C10.0221 90.3572 10.4592 90.2867 10.9812 90.2867H11.3348C12.3609 90.2867 13.0766 90.5484 13.4802 91.0728C13.8843 91.5969 14.0857 92.2748 14.0857 93.107V96.2015H12.0662V93.3813C12.0662 93.0983 12.0077 92.853 11.8898 92.6454C11.7719 92.4371 11.5196 92.3331 11.1322 92.3331C10.7624 92.3331 10.5224 92.4371 10.413 92.6454C10.3036 92.8534 10.2489 93.0987 10.2489 93.3813V109.954C10.2489 110.237 10.3036 110.479 10.413 110.678C10.5224 110.878 10.7624 110.978 11.1322 110.978C11.5196 110.978 11.7719 110.878 11.8898 110.678C12.0077 110.479 12.0662 110.237 12.0662 109.954V101.094H14.0857V110.204C14.0857 111.019 13.8843 111.689 13.4802 112.213C13.0766 112.737 12.3609 112.999 11.3348 112.999H10.9812C9.9377 112.999 9.21857 112.737 8.82299 112.213C8.4274 111.689 8.22942 111.019 8.22942 110.204V93.1067V93.1074ZM16.4585 113V90.2867H21.2039V92.3331H18.478V101.069H21.7593V103.116H18.478V110.953H26.9847V112.999H16.4585V113ZM23.1475 92.3084V90.2867H29.0289V92.3084H27.0856V109.855H25.0407V92.3084H23.1475ZM32.7906 113C31.7471 113 31.0276 112.738 30.632 112.214C30.2364 111.689 30.0384 111.02 30.0384 110.204V93.1074C30.0384 92.6911 30.0851 92.3125 30.1775 91.9713C30.2699 91.63 30.4217 91.3349 30.632 91.0854C30.8423 90.8356 31.1243 90.6402 31.4775 90.4989C31.8311 90.3572 32.2686 90.2867 32.7906 90.2867H33.1438C34.1703 90.2867 34.8856 90.5484 35.2892 91.0728C35.6933 91.5969 35.8951 92.2748 35.8951 93.107V110.204C35.8951 111.019 35.6933 111.689 35.2892 112.213C34.8856 112.738 34.1703 112.999 33.1438 112.999H32.7906V113ZM32.0583 109.955C32.0583 110.238 32.1126 110.479 32.222 110.679C32.3318 110.878 32.5714 110.978 32.9416 110.978C33.3287 110.978 33.581 110.878 33.6988 110.679C33.8167 110.479 33.8752 110.238 33.8752 109.955V93.3816C33.8752 93.0987 33.8167 92.8534 33.6988 92.6458C33.581 92.4375 33.3287 92.3335 32.9416 92.3335C32.5714 92.3335 32.3318 92.4375 32.222 92.6458C32.1126 92.8538 32.0583 93.099 32.0583 93.3816V109.955ZM40.161 90.2867V91.934C40.2115 92.949 40.3039 93.8806 40.4388 94.7291C40.5732 95.5777 40.7288 96.3684 40.9056 97.1008C41.0824 97.8328 41.2758 98.5149 41.4865 99.1471C41.6968 99.7794 41.9113 100.387 42.1297 100.97V90.2871H44.1238V113H42.1297V108.333C42.1297 108.183 42.1297 108.038 42.1297 107.896C42.1297 107.755 42.1212 107.618 42.1047 107.485C42.0373 106.886 41.9363 106.311 41.8015 105.762C41.6671 105.213 41.5157 104.681 41.3474 104.165C41.1791 103.649 40.9938 103.137 40.792 102.63C40.5901 102.122 40.3883 101.603 40.1865 101.07V113.001H38.2679V90.2875H40.161V90.2867ZM46.4965 113V90.2867H51.9996V92.3331H48.5164V101.069H51.9996V103.116H48.5164V110.953H51.9996V112.999H46.4965V113Z" fill="#8CF394"/>
<path d="M51.4376 46.4302L51.438 55.4247H46.1464L34.6861 44.1508L48.0742 30.9135L48.075 16.686L35.1406 3.89623H16.8594L3.92501 16.686L3.92578 30.9135L17.3143 44.1508L5.854 55.4247H0.562366V46.4306L4.50278 42.5344V51.2733L11.7423 44.1515L0.00115555 32.5421L0 15.057L15.2274 0H36.7726L52 15.057L51.9992 32.5421L40.2577 44.1515L47.4976 51.2733L47.4972 42.534L51.4376 46.4302Z" fill="#8CF394"/>
<path d="M15.9138 57.1246L0.562378 72.2567V66.7715L13.1432 54.3694L15.9138 57.1246Z" fill="#8CF394"/>
<path d="M18.0593 87.0993L12.5585 81.6826V66.3598L24.5365 54.5663H27.4639L39.4419 66.3598V81.6826L33.9292 87.0993H28.3725L35.5019 80.08V67.9624L26.0002 58.6073L16.4985 67.9624V80.08L23.6278 87.0993H18.0593Z" fill="#8CF394"/>
<path d="M38.8572 54.3694L51.4376 66.7715V72.2571L36.0866 57.1246L38.8572 54.3694Z" fill="#8CF394"/>
<path fill-rule="evenodd" clip-rule="evenodd" d="M26.0002 18.3634L28.4962 20.8314L30.9918 23.299L28.4962 25.7666L26.0002 28.2346L23.5042 25.7666L21.0082 23.299L23.5042 20.8314L26.0002 18.3634Z" fill="#8CF394"/>
<path d="M9.81636 26.6278L15.2031 31.9538L12.4171 34.7089L7.03033 29.3826L9.81636 26.6278Z" fill="#8CF394"/>
<path d="M18.9421 25.3423L24.3289 30.6683L21.5429 33.4231L16.1561 28.0971L18.9421 25.3423Z" fill="#8CF394"/>
<path d="M11.3455 17.8306L16.7323 23.157L13.9463 25.9117L8.55951 20.5858L11.3455 17.8306Z" fill="#8CF394"/>
<path d="M44.97 29.3826L39.5833 34.7089L36.7972 31.9538L42.184 26.6278L44.97 29.3826Z" fill="#8CF394"/>
<path d="M35.8443 28.0971L30.4575 33.4231L27.6715 30.6683L33.0583 25.3423L35.8443 28.0971Z" fill="#8CF394"/>
<path d="M43.4405 20.5858L38.0541 25.9117L35.2681 23.157L40.6548 17.8306L43.4405 20.5858Z" fill="#8CF394"/>
</g>
<defs>
<clipPath id="clip0_1_4">
<rect width="52" height="113" fill="white"/>
</clipPath>
</defs>
</svg>
