<svg width="278" height="64" viewBox="0 0 278 64" fill="none" xmlns="http://www.w3.org/2000/svg">
<path d="M0 0H278V52L266 64H0V0Z" fill="#1C5B30"/>
<rect width="3" height="3" fill="#8CF394"/>
<rect x="275" width="3" height="3" fill="#8CF394"/>
<path d="M11.368 38V24.86H13.492L14.86 29.108C14.992 29.492 15.112 29.876 15.22 30.26C15.328 30.632 15.406 30.92 15.454 31.124C15.514 30.92 15.592 30.632 15.688 30.26C15.784 29.876 15.892 29.486 16.012 29.09L17.308 24.86H19.432V38H17.848V33.23C17.848 32.702 17.866 32.102 17.902 31.43C17.938 30.758 17.986 30.074 18.046 29.378C18.106 28.67 18.166 27.998 18.226 27.362C18.298 26.714 18.358 26.15 18.406 25.67L16.282 32.24H14.572L12.43 25.67C12.49 26.138 12.55 26.684 12.61 27.308C12.67 27.92 12.724 28.574 12.772 29.27C12.82 29.954 12.862 30.638 12.898 31.322C12.934 32.006 12.952 32.642 12.952 33.23V38H11.368ZM26.193 38.144C25.401 38.144 24.717 37.994 24.141 37.694C23.565 37.394 23.115 36.962 22.791 36.398C22.479 35.822 22.323 35.144 22.323 34.364V31.736C22.323 30.944 22.479 30.266 22.791 29.702C23.115 29.138 23.565 28.706 24.141 28.406C24.717 28.106 25.401 27.956 26.193 27.956C26.985 27.956 27.669 28.106 28.245 28.406C28.821 28.706 29.265 29.138 29.577 29.702C29.901 30.266 30.063 30.938 30.063 31.718V34.364C30.063 35.144 29.901 35.822 29.577 36.398C29.265 36.962 28.821 37.394 28.245 37.694C27.669 37.994 26.985 38.144 26.193 38.144ZM26.193 36.704C26.901 36.704 27.453 36.506 27.849 36.11C28.245 35.714 28.443 35.132 28.443 34.364V31.736C28.443 30.968 28.245 30.386 27.849 29.99C27.453 29.594 26.901 29.396 26.193 29.396C25.497 29.396 24.945 29.594 24.537 29.99C24.141 30.386 23.943 30.968 23.943 31.736V34.364C23.943 35.132 24.141 35.714 24.537 36.11C24.945 36.506 25.497 36.704 26.193 36.704ZM33.2419 38V28.1H34.8619V29.99H35.2039L34.8619 30.368C34.8619 29.588 35.0959 28.988 35.5639 28.568C36.0319 28.136 36.6799 27.92 37.5079 27.92C38.5039 27.92 39.2959 28.226 39.8839 28.838C40.4719 29.45 40.7659 30.284 40.7659 31.34V38H39.1459V31.52C39.1459 30.812 38.9539 30.272 38.5699 29.9C38.1979 29.516 37.6879 29.324 37.0399 29.324C36.3679 29.324 35.8339 29.528 35.4379 29.936C35.0539 30.344 34.8619 30.932 34.8619 31.7V38H33.2419ZM47.7789 38.18C46.9989 38.18 46.3149 38.024 45.7269 37.712C45.1509 37.4 44.7009 36.962 44.3769 36.398C44.0649 35.822 43.9089 35.156 43.9089 34.4V31.7C43.9089 30.932 44.0649 30.266 44.3769 29.702C44.7009 29.138 45.1509 28.7 45.7269 28.388C46.3149 28.076 46.9989 27.92 47.7789 27.92C48.5589 27.92 49.2369 28.076 49.8129 28.388C50.4009 28.7 50.8509 29.138 51.1629 29.702C51.4869 30.266 51.6489 30.932 51.6489 31.7V33.446H45.4929V34.4C45.4929 35.18 45.6909 35.78 46.0869 36.2C46.4829 36.608 47.0469 36.812 47.7789 36.812C48.4029 36.812 48.9069 36.704 49.2909 36.488C49.6749 36.26 49.9089 35.924 49.9929 35.48H51.6129C51.5049 36.308 51.0969 36.968 50.3889 37.46C49.6929 37.94 48.8229 38.18 47.7789 38.18ZM50.0649 32.366V31.7C50.0649 30.92 49.8669 30.32 49.4709 29.9C49.0869 29.48 48.5229 29.27 47.7789 29.27C47.0469 29.27 46.4829 29.48 46.0869 29.9C45.6909 30.32 45.4929 30.92 45.4929 31.7V32.222H50.1909L50.0649 32.366ZM55.1699 38V28.1H56.7539V29.99H57.1319L56.6099 31.16C56.6099 30.092 56.8379 29.288 57.2939 28.748C57.7619 28.196 58.4519 27.92 59.3639 27.92C60.4079 27.92 61.2359 28.25 61.8479 28.91C62.4719 29.558 62.7839 30.44 62.7839 31.556V32.15H61.1639V31.7C61.1639 30.92 60.9719 30.326 60.5879 29.918C60.2159 29.498 59.6819 29.288 58.9859 29.288C58.3019 29.288 57.7619 29.498 57.3659 29.918C56.9819 30.338 56.7899 30.932 56.7899 31.7V38H55.1699ZM69.3648 38.144C68.5728 38.144 67.8888 37.994 67.3128 37.694C66.7368 37.394 66.2868 36.962 65.9628 36.398C65.6508 35.822 65.4948 35.144 65.4948 34.364V31.736C65.4948 30.944 65.6508 30.266 65.9628 29.702C66.2868 29.138 66.7368 28.706 67.3128 28.406C67.8888 28.106 68.5728 27.956 69.3648 27.956C70.1568 27.956 70.8408 28.106 71.4168 28.406C71.9928 28.706 72.4368 29.138 72.7488 29.702C73.0728 30.266 73.2348 30.938 73.2348 31.718V34.364C73.2348 35.144 73.0728 35.822 72.7488 36.398C72.4368 36.962 71.9928 37.394 71.4168 37.694C70.8408 37.994 70.1568 38.144 69.3648 38.144ZM69.3648 36.704C70.0728 36.704 70.6248 36.506 71.0208 36.11C71.4168 35.714 71.6148 35.132 71.6148 34.364V31.736C71.6148 30.968 71.4168 30.386 71.0208 29.99C70.6248 29.594 70.0728 29.396 69.3648 29.396C68.6688 29.396 68.1168 29.594 67.7088 29.99C67.3128 30.386 67.1148 30.968 67.1148 31.736V34.364C67.1148 35.132 67.3128 35.714 67.7088 36.11C68.1168 36.506 68.6688 36.704 69.3648 36.704Z" fill="#8CF394"/>
</svg>
