<svg width="170" height="170" viewBox="0 0 170 170" fill="none" xmlns="http://www.w3.org/2000/svg">
<path d="M0 0H170V155L155 170H0V0Z" fill="#1C5B30"/>
<path d="M47.8001 91.18C47.0081 91.18 46.3181 91.03 45.7301 90.73C45.1541 90.43 44.7041 89.998 44.3801 89.434C44.0681 88.858 43.9121 88.18 43.9121 87.4V81.46C43.9121 80.668 44.0681 79.99 44.3801 79.426C44.7041 78.862 45.1541 78.43 45.7301 78.13C46.3181 77.83 47.0081 77.68 47.8001 77.68C48.5921 77.68 49.2761 77.836 49.8521 78.148C50.4281 78.448 50.8721 78.88 51.1841 79.444C51.4961 80.008 51.6521 80.68 51.6521 81.46H50.0321C50.0321 80.716 49.8341 80.146 49.4381 79.75C49.0541 79.342 48.5081 79.138 47.8001 79.138C47.0921 79.138 46.5341 79.336 46.1261 79.732C45.7301 80.128 45.5321 80.698 45.5321 81.442V87.4C45.5321 88.144 45.7301 88.72 46.1261 89.128C46.5341 89.524 47.0921 89.722 47.8001 89.722C48.5081 89.722 49.0541 89.524 49.4381 89.128C49.8341 88.72 50.0321 88.144 50.0321 87.4H51.6521C51.6521 88.168 51.4961 88.84 51.1841 89.416C50.8721 89.98 50.4281 90.418 49.8521 90.73C49.2761 91.03 48.5921 91.18 47.8001 91.18ZM59.8711 91C59.2951 91 58.7911 90.886 58.3591 90.658C57.9271 90.43 57.5911 90.106 57.3511 89.686C57.1111 89.266 56.9911 88.774 56.9911 88.21V79.336H53.6611V77.86H58.6111V88.21C58.6111 88.618 58.7251 88.942 58.9531 89.182C59.1811 89.41 59.4871 89.524 59.8711 89.524H63.0211V91H59.8711ZM69.3141 91.18C68.5341 91.18 67.8501 91.024 67.2621 90.712C66.6861 90.4 66.2361 89.962 65.9121 89.398C65.6001 88.822 65.4441 88.156 65.4441 87.4V84.7C65.4441 83.932 65.6001 83.266 65.9121 82.702C66.2361 82.138 66.6861 81.7 67.2621 81.388C67.8501 81.076 68.5341 80.92 69.3141 80.92C70.0941 80.92 70.7721 81.076 71.3481 81.388C71.9361 81.7 72.3861 82.138 72.6981 82.702C73.0221 83.266 73.1841 83.932 73.1841 84.7V86.446H67.0281V87.4C67.0281 88.18 67.2261 88.78 67.6221 89.2C68.0181 89.608 68.5821 89.812 69.3141 89.812C69.9381 89.812 70.4421 89.704 70.8261 89.488C71.2101 89.26 71.4441 88.924 71.5281 88.48H73.1481C73.0401 89.308 72.6321 89.968 71.9241 90.46C71.2281 90.94 70.3581 91.18 69.3141 91.18ZM71.6001 85.366V84.7C71.6001 83.92 71.4021 83.32 71.0061 82.9C70.6221 82.48 70.0581 82.27 69.3141 82.27C68.5821 82.27 68.0181 82.48 67.6221 82.9C67.2261 83.32 67.0281 83.92 67.0281 84.7V85.222H71.7261L71.6001 85.366ZM79.243 91.18C78.199 91.18 77.377 90.916 76.777 90.388C76.177 89.848 75.877 89.122 75.877 88.21C75.877 87.286 76.177 86.56 76.777 86.032C77.377 85.504 78.187 85.24 79.207 85.24H82.267V84.25C82.267 83.638 82.081 83.17 81.709 82.846C81.349 82.51 80.833 82.342 80.161 82.342C79.573 82.342 79.081 82.468 78.685 82.72C78.289 82.96 78.061 83.29 78.001 83.71H76.381C76.489 82.858 76.891 82.18 77.587 81.676C78.283 81.172 79.153 80.92 80.197 80.92C81.337 80.92 82.237 81.214 82.897 81.802C83.557 82.39 83.887 83.188 83.887 84.196V91H82.303V89.11H82.033L82.303 88.84C82.303 89.56 82.021 90.13 81.457 90.55C80.905 90.97 80.167 91.18 79.243 91.18ZM79.639 89.902C80.407 89.902 81.037 89.71 81.529 89.326C82.021 88.942 82.267 88.45 82.267 87.85V86.446H79.243C78.703 86.446 78.277 86.596 77.965 86.896C77.653 87.196 77.497 87.604 77.497 88.12C77.497 88.672 77.683 89.11 78.055 89.434C78.439 89.746 78.967 89.902 79.639 89.902ZM87.498 91V81.1H89.082V82.99H89.46L88.938 84.16C88.938 83.092 89.166 82.288 89.622 81.748C90.09 81.196 90.78 80.92 91.692 80.92C92.736 80.92 93.564 81.25 94.176 81.91C94.8 82.558 95.112 83.44 95.112 84.556V85.15H93.492V84.7C93.492 83.92 93.3 83.326 92.916 82.918C92.544 82.498 92.01 82.288 91.314 82.288C90.63 82.288 90.09 82.498 89.694 82.918C89.31 83.338 89.118 83.932 89.118 84.7V91H87.498ZM97.949 91V81.1H99.569V82.99H99.911L99.569 83.368C99.569 82.588 99.803 81.988 100.271 81.568C100.739 81.136 101.387 80.92 102.215 80.92C103.211 80.92 104.003 81.226 104.591 81.838C105.179 82.45 105.473 83.284 105.473 84.34V91H103.853V84.52C103.853 83.812 103.661 83.272 103.277 82.9C102.905 82.516 102.395 82.324 101.747 82.324C101.075 82.324 100.541 82.528 100.145 82.936C99.761 83.344 99.569 83.932 99.569 84.7V91H97.949ZM112.486 91.18C111.706 91.18 111.022 91.024 110.434 90.712C109.858 90.4 109.408 89.962 109.084 89.398C108.772 88.822 108.616 88.156 108.616 87.4V84.7C108.616 83.932 108.772 83.266 109.084 82.702C109.408 82.138 109.858 81.7 110.434 81.388C111.022 81.076 111.706 80.92 112.486 80.92C113.266 80.92 113.944 81.076 114.52 81.388C115.108 81.7 115.558 82.138 115.87 82.702C116.194 83.266 116.356 83.932 116.356 84.7V86.446H110.2V87.4C110.2 88.18 110.398 88.78 110.794 89.2C111.19 89.608 111.754 89.812 112.486 89.812C113.11 89.812 113.614 89.704 113.998 89.488C114.382 89.26 114.616 88.924 114.7 88.48H116.32C116.212 89.308 115.804 89.968 115.096 90.46C114.4 90.94 113.53 91.18 112.486 91.18ZM114.772 85.366V84.7C114.772 83.92 114.574 83.32 114.178 82.9C113.794 82.48 113.23 82.27 112.486 82.27C111.754 82.27 111.19 82.48 110.794 82.9C110.398 83.32 110.2 83.92 110.2 84.7V85.222H114.898L114.772 85.366ZM124.359 91C123.507 91 122.841 90.772 122.361 90.316C121.893 89.86 121.659 89.218 121.659 88.39V82.576H118.869V81.1H121.659V78.31H123.279V81.1H127.239V82.576H123.279V88.39C123.279 89.146 123.639 89.524 124.359 89.524H127.059V91H124.359Z" fill="#8CF394"/>
<rect width="3" height="3" fill="#8CF394"/>
<rect x="167" width="3" height="3" fill="#8CF394"/>
</svg>
