<svg width="422" height="422" viewBox="0 0 422 422" fill="none" xmlns="http://www.w3.org/2000/svg">
<path d="M0 0H422V392L392 422H0V0Z" fill="#1C5B30"/>
<path d="M84.7964 224V197.72H92.9324C94.4924 197.72 95.8604 198.044 97.0364 198.692C98.2124 199.316 99.1244 200.192 99.7724 201.32C100.42 202.448 100.744 203.768 100.744 205.28C100.744 207.056 100.276 208.58 99.3404 209.852C98.4284 211.124 97.1804 212 95.5964 212.48L101.104 224H97.2884L92.2484 212.84H88.0364V224H84.7964ZM88.0364 209.924H92.9324C94.2764 209.924 95.3564 209.504 96.1724 208.664C96.9884 207.8 97.3964 206.672 97.3964 205.28C97.3964 203.864 96.9884 202.736 96.1724 201.896C95.3564 201.056 94.2764 200.636 92.9324 200.636H88.0364V209.924ZM112.142 224.36C110.054 224.36 108.41 223.832 107.21 222.776C106.01 221.696 105.41 220.244 105.41 218.42C105.41 216.572 106.01 215.12 107.21 214.064C108.41 213.008 110.03 212.48 112.07 212.48H118.19V210.5C118.19 209.276 117.818 208.34 117.074 207.692C116.354 207.02 115.322 206.684 113.978 206.684C112.802 206.684 111.818 206.936 111.026 207.44C110.234 207.92 109.778 208.58 109.658 209.42H106.418C106.634 207.716 107.438 206.36 108.83 205.352C110.222 204.344 111.962 203.84 114.05 203.84C116.33 203.84 118.13 204.428 119.45 205.604C120.77 206.78 121.43 208.376 121.43 210.392V224H118.262V220.22H117.722L118.262 219.68C118.262 221.12 117.698 222.26 116.57 223.1C115.466 223.94 113.99 224.36 112.142 224.36ZM112.934 221.804C114.47 221.804 115.73 221.42 116.714 220.652C117.698 219.884 118.19 218.9 118.19 217.7V214.892H112.142C111.062 214.892 110.21 215.192 109.586 215.792C108.962 216.392 108.65 217.208 108.65 218.24C108.65 219.344 109.022 220.22 109.766 220.868C110.534 221.492 111.59 221.804 112.934 221.804ZM134.304 224.36C132.336 224.36 130.74 223.7 129.516 222.38C128.316 221.06 127.716 219.272 127.716 217.016V211.22C127.716 208.94 128.316 207.14 129.516 205.82C130.716 204.5 132.312 203.84 134.304 203.84C135.936 203.84 137.244 204.284 138.228 205.172C139.212 206.06 139.704 207.248 139.704 208.736L139.056 207.98H139.776L139.704 203.48V197.72H142.944V224H139.704V220.22H139.056L139.704 219.464C139.704 220.976 139.212 222.176 138.228 223.064C137.244 223.928 135.936 224.36 134.304 224.36ZM135.384 221.552C136.728 221.552 137.784 221.132 138.552 220.292C139.32 219.452 139.704 218.288 139.704 216.8V211.4C139.704 209.912 139.32 208.748 138.552 207.908C137.784 207.068 136.728 206.648 135.384 206.648C134.016 206.648 132.936 207.056 132.144 207.872C131.352 208.688 130.956 209.864 130.956 211.4V216.8C130.956 218.336 131.352 219.512 132.144 220.328C132.936 221.144 134.016 221.552 135.384 221.552ZM149.302 224V221.048H156.322V207.152H150.202V204.2H159.562V221.048H166.222V224H149.302ZM157.582 200.636C156.79 200.636 156.166 200.432 155.71 200.024C155.254 199.616 155.026 199.064 155.026 198.368C155.026 197.648 155.254 197.084 155.71 196.676C156.166 196.244 156.79 196.028 157.582 196.028C158.374 196.028 158.998 196.244 159.454 196.676C159.91 197.084 160.138 197.648 160.138 198.368C160.138 199.064 159.91 199.616 159.454 200.024C158.998 200.432 158.374 200.636 157.582 200.636ZM178.628 224.288C177.044 224.288 175.676 223.988 174.524 223.388C173.372 222.788 172.472 221.924 171.824 220.796C171.2 219.644 170.888 218.288 170.888 216.728V211.472C170.888 209.888 171.2 208.532 171.824 207.404C172.472 206.276 173.372 205.412 174.524 204.812C175.676 204.212 177.044 203.912 178.628 203.912C180.212 203.912 181.58 204.212 182.732 204.812C183.884 205.412 184.772 206.276 185.396 207.404C186.044 208.532 186.368 209.876 186.368 211.436V216.728C186.368 218.288 186.044 219.644 185.396 220.796C184.772 221.924 183.884 222.788 182.732 223.388C181.58 223.988 180.212 224.288 178.628 224.288ZM178.628 221.408C180.044 221.408 181.148 221.012 181.94 220.22C182.732 219.428 183.128 218.264 183.128 216.728V211.472C183.128 209.936 182.732 208.772 181.94 207.98C181.148 207.188 180.044 206.792 178.628 206.792C177.236 206.792 176.132 207.188 175.316 207.98C174.524 208.772 174.128 209.936 174.128 211.472V216.728C174.128 218.264 174.524 219.428 175.316 220.22C176.132 221.012 177.236 221.408 178.628 221.408ZM221.188 224.288C219.844 224.288 218.668 224.084 217.66 223.676C216.676 223.244 215.884 222.644 215.284 221.876C214.708 221.108 214.36 220.196 214.24 219.14H217.48C217.624 219.836 218.008 220.388 218.632 220.796C219.28 221.204 220.132 221.408 221.188 221.408H222.7C223.972 221.408 224.92 221.156 225.544 220.652C226.168 220.124 226.48 219.428 226.48 218.564C226.48 217.724 226.192 217.064 225.616 216.584C225.064 216.08 224.236 215.744 223.132 215.576L220.468 215.144C218.524 214.808 217.072 214.208 216.112 213.344C215.176 212.456 214.708 211.172 214.708 209.492C214.708 207.716 215.272 206.348 216.4 205.388C217.528 204.404 219.22 203.912 221.476 203.912H222.844C224.74 203.912 226.264 204.356 227.416 205.244C228.568 206.132 229.264 207.332 229.504 208.844H226.264C226.12 208.22 225.76 207.728 225.184 207.368C224.608 206.984 223.828 206.792 222.844 206.792H221.476C220.252 206.792 219.352 207.02 218.776 207.476C218.224 207.932 217.948 208.616 217.948 209.528C217.948 210.344 218.188 210.944 218.668 211.328C219.148 211.712 219.904 211.988 220.936 212.156L223.6 212.588C225.736 212.924 227.284 213.548 228.244 214.46C229.228 215.372 229.72 216.692 229.72 218.42C229.72 220.244 229.132 221.684 227.956 222.74C226.804 223.772 225.052 224.288 222.7 224.288H221.188ZM245.546 224C243.842 224 242.51 223.544 241.55 222.632C240.614 221.72 240.146 220.436 240.146 218.78V207.152H234.566V204.2H240.146V198.62H243.386V204.2H251.306V207.152H243.386V218.78C243.386 220.292 244.106 221.048 245.546 221.048H250.946V224H245.546ZM258.168 224V204.2H261.336V207.98H262.092L261.048 210.32C261.048 208.184 261.504 206.576 262.416 205.496C263.352 204.392 264.732 203.84 266.556 203.84C268.644 203.84 270.3 204.5 271.524 205.82C272.772 207.116 273.396 208.88 273.396 211.112V212.3H270.156V211.4C270.156 209.84 269.772 208.652 269.004 207.836C268.26 206.996 267.192 206.576 265.8 206.576C264.432 206.576 263.352 206.996 262.56 207.836C261.792 208.676 261.408 209.864 261.408 211.4V224H258.168ZM286.558 224.36C284.998 224.36 283.63 224.048 282.454 223.424C281.302 222.8 280.402 221.924 279.754 220.796C279.13 219.644 278.818 218.312 278.818 216.8V211.4C278.818 209.864 279.13 208.532 279.754 207.404C280.402 206.276 281.302 205.4 282.454 204.776C283.63 204.152 284.998 203.84 286.558 203.84C288.118 203.84 289.474 204.152 290.626 204.776C291.802 205.4 292.702 206.276 293.326 207.404C293.974 208.532 294.298 209.864 294.298 211.4V214.892H281.986V216.8C281.986 218.36 282.382 219.56 283.174 220.4C283.966 221.216 285.094 221.624 286.558 221.624C287.806 221.624 288.814 221.408 289.582 220.976C290.35 220.52 290.818 219.848 290.986 218.96H294.226C294.01 220.616 293.194 221.936 291.778 222.92C290.386 223.88 288.646 224.36 286.558 224.36ZM291.13 212.732V211.4C291.13 209.84 290.734 208.64 289.942 207.8C289.174 206.96 288.046 206.54 286.558 206.54C285.094 206.54 283.966 206.96 283.174 207.8C282.382 208.64 281.986 209.84 281.986 211.4V212.444H291.382L291.13 212.732ZM306.416 224.36C304.328 224.36 302.684 223.832 301.484 222.776C300.284 221.696 299.684 220.244 299.684 218.42C299.684 216.572 300.284 215.12 301.484 214.064C302.684 213.008 304.304 212.48 306.344 212.48H312.464V210.5C312.464 209.276 312.092 208.34 311.348 207.692C310.628 207.02 309.596 206.684 308.252 206.684C307.076 206.684 306.092 206.936 305.3 207.44C304.508 207.92 304.052 208.58 303.932 209.42H300.692C300.908 207.716 301.712 206.36 303.104 205.352C304.496 204.344 306.236 203.84 308.324 203.84C310.604 203.84 312.404 204.428 313.724 205.604C315.044 206.78 315.704 208.376 315.704 210.392V224H312.536V220.22H311.996L312.536 219.68C312.536 221.12 311.972 222.26 310.844 223.1C309.74 223.94 308.264 224.36 306.416 224.36ZM307.208 221.804C308.744 221.804 310.004 221.42 310.988 220.652C311.972 219.884 312.464 218.9 312.464 217.7V214.892H306.416C305.336 214.892 304.484 215.192 303.86 215.792C303.236 216.392 302.924 217.208 302.924 218.24C302.924 219.344 303.296 220.22 304.04 220.868C304.808 221.492 305.864 221.804 307.208 221.804ZM321.306 224V204.2H324.15V206.576H324.798L324.294 207.44C324.294 206.336 324.582 205.46 325.158 204.812C325.758 204.164 326.562 203.84 327.57 203.84C328.674 203.84 329.526 204.248 330.126 205.064C330.726 205.88 331.026 207.032 331.026 208.52L330.054 206.576H331.566L330.882 207.44C330.882 206.336 331.182 205.46 331.782 204.812C332.406 204.164 333.222 203.84 334.23 203.84C335.478 203.84 336.438 204.308 337.11 205.244C337.806 206.18 338.154 207.416 338.154 208.952V224H335.166V208.916C335.166 208.1 334.986 207.464 334.626 207.008C334.29 206.552 333.786 206.324 333.114 206.324C332.466 206.324 331.95 206.552 331.566 207.008C331.206 207.44 331.026 208.064 331.026 208.88V224H328.434V208.916C328.434 208.076 328.242 207.44 327.858 207.008C327.498 206.552 326.982 206.324 326.31 206.324C325.638 206.324 325.134 206.552 324.798 207.008C324.462 207.44 324.294 208.064 324.294 208.88V224H321.306Z" fill="#8CF394"/>
<rect width="3" height="3" fill="#8CF394"/>
<rect x="419" width="3" height="3" fill="#8CF394"/>
</svg>
