<svg xmlns="http://www.w3.org/2000/svg" version="1.1" xmlns:xlink="http://www.w3.org/1999/xlink" xmlns:svgjs="http://svgjs.com/svgjs" width="1000" height="1000"><rect width="1000" height="1000" rx="150" ry="150" fill="#202720"></rect><g transform="matrix(9.090909090909092,0,0,9.090909090909092,263.6363636363636,103.64375478571105)"><svg xmlns="http://www.w3.org/2000/svg" version="1.1" xmlns:xlink="http://www.w3.org/1999/xlink" xmlns:svgjs="http://svgjs.com/svgjs" width="52" height="88"><svg width="52" height="88" viewBox="0 0 52 88" fill="none" xmlns="http://www.w3.org/2000/svg">
<path d="M51.4376 46.4302L51.438 55.4247H46.1464L34.6861 44.1508L48.0742 30.9135L48.075 16.686L35.1406 3.89623H16.8594L3.92501 16.686L3.92578 30.9135L17.3143 44.1508L5.854 55.4247H0.562366V46.4306L4.50278 42.5344V51.2733L11.7423 44.1515L0.00115555 32.5421L0 15.057L15.2274 0H36.7726L52 15.057L51.9992 32.5421L40.2577 44.1515L47.4976 51.2733L47.4972 42.534L51.4376 46.4302Z" fill="#8CF394"></path>
<path d="M15.9138 57.1246L0.562378 72.2567V66.7715L13.1432 54.3694L15.9138 57.1246Z" fill="#8CF394"></path>
<path d="M18.0593 87.0993L12.5585 81.6826V66.3598L24.5365 54.5663H27.4639L39.4419 66.3598V81.6826L33.9292 87.0993H28.3725L35.5019 80.08V67.9624L26.0002 58.6073L16.4985 67.9624V80.08L23.6278 87.0993H18.0593Z" fill="#8CF394"></path>
<path d="M38.8572 54.3694L51.4376 66.7715V72.2571L36.0866 57.1246L38.8572 54.3694Z" fill="#8CF394"></path>
<path fill-rule="evenodd" clip-rule="evenodd" d="M26.0002 18.3634L28.4962 20.8314L30.9918 23.299L28.4962 25.7666L26.0002 28.2346L23.5042 25.7666L21.0082 23.299L23.5042 20.8314L26.0002 18.3634Z" fill="#8CF394"></path>
<path d="M9.81636 26.6278L15.2031 31.9538L12.4171 34.7089L7.03033 29.3826L9.81636 26.6278Z" fill="#8CF394"></path>
<path d="M18.9421 25.3423L24.3289 30.6683L21.5429 33.4231L16.1561 28.0971L18.9421 25.3423Z" fill="#8CF394"></path>
<path d="M11.3455 17.8306L16.7323 23.157L13.9463 25.9117L8.55951 20.5858L11.3455 17.8306Z" fill="#8CF394"></path>
<path d="M44.97 29.3826L39.5833 34.7089L36.7972 31.9538L42.184 26.6278L44.97 29.3826Z" fill="#8CF394"></path>
<path d="M35.8443 28.0971L30.4575 33.4231L27.6715 30.6683L33.0583 25.3423L35.8443 28.0971Z" fill="#8CF394"></path>
<path d="M43.4405 20.5858L38.0541 25.9117L35.2681 23.157L40.6548 17.8306L43.4405 20.5858Z" fill="#8CF394"></path>
</svg></svg></g></svg>