<?xml version="1.0" standalone="no"?>
<!DOCTYPE svg PUBLIC "-//W3C//DTD SVG 20010904//EN"
 "http://www.w3.org/TR/2001/REC-SVG-20010904/DTD/svg10.dtd">
<svg version="1.0" xmlns="http://www.w3.org/2000/svg"
 width="192.000000pt" height="192.000000pt" viewBox="0 0 192.000000 192.000000"
 preserveAspectRatio="xMidYMid meet">
<metadata>
Created by potrace 1.14, written by Peter Selinger 2001-2017
</metadata>
<g transform="translate(0.000000,192.000000) scale(0.100000,-0.100000)"
fill="#000000" stroke="none">
<path d="M180 1906 c0 -8 -13 -19 -29 -24 -37 -13 -100 -76 -113 -113 -5 -16
-16 -29 -24 -29 -12 0 -14 -118 -14 -780 0 -662 2 -780 14 -780 8 0 19 -13 24
-29 13 -37 76 -100 113 -113 16 -5 29 -16 29 -24 0 -12 118 -14 780 -14 662 0
780 2 780 14 0 8 13 19 29 24 37 13 100 76 113 113 5 16 16 29 24 29 12 0 14
118 14 780 0 662 -2 780 -14 780 -8 0 -19 13 -24 29 -13 37 -76 100 -113 113
-16 5 -29 16 -29 24 0 12 -118 14 -780 14 -662 0 -780 -2 -780 -14z m937 -192
c20 -4 72 -45 154 -123 l124 -118 3 -162 3 -162 -81 -79 c-45 -43 -88 -89 -95
-103 -12 -23 -10 -28 34 -71 51 -50 81 -54 81 -10 0 26 34 51 45 33 4 -6 9
-37 12 -70 7 -70 -5 -89 -54 -89 -29 0 -46 12 -124 88 -49 49 -89 92 -89 96 0
4 49 58 108 120 121 125 122 126 122 266 l0 88 -102 107 c-55 58 -114 113
-129 121 -36 18 -299 20 -332 2 -12 -6 -70 -61 -129 -121 l-108 -110 0 -93 c0
-51 5 -105 11 -121 5 -15 57 -76 115 -135 57 -58 104 -111 104 -116 0 -6 -39
-49 -87 -97 -65 -65 -95 -88 -120 -92 -48 -8 -63 9 -63 72 0 69 7 85 35 85 18
0 24 -6 27 -27 5 -44 34 -41 83 7 43 42 43 43 27 68 -9 14 -50 58 -92 99 l-75
75 -3 158 -3 158 131 131 130 131 154 0 c84 0 167 -3 183 -6z m-380 -346 c36
-34 43 -72 16 -82 -32 -13 -91 83 -66 107 10 11 15 9 50 -25z m500 1 c3 -32
-48 -92 -70 -83 -27 10 -20 45 15 81 36 37 52 38 55 2z m-256 1 c5 0 18 -14
29 -32 l19 -32 -26 -28 c-15 -15 -34 -28 -43 -28 -24 0 -74 56 -65 72 18 31
50 58 63 53 7 -3 18 -5 23 -5z m-93 -153 c25 -26 29 -36 20 -45 -18 -18 -34
-15 -69 17 -20 19 -30 35 -26 45 10 26 41 19 75 -17z m219 17 c4 -10 -6 -26
-26 -45 -35 -32 -51 -35 -69 -17 -9 9 -5 19 20 45 34 36 65 43 75 17z m-384
-32 c29 -30 28 -62 0 -62 -19 0 -73 54 -73 74 0 26 44 19 73 -12z m547 12 c0
-20 -54 -74 -73 -74 -28 0 -29 32 0 62 29 31 73 38 73 12z m-512 -483 c3 -18
-21 -47 -108 -132 -62 -60 -116 -106 -121 -103 -5 3 -9 16 -9 28 0 17 32 55
108 130 59 58 112 104 117 103 6 -2 11 -14 13 -26z m302 -41 c130 -115 130
-115 130 -261 l0 -124 -44 -46 c-45 -48 -74 -62 -97 -48 -11 6 -3 19 31 54
l45 46 4 85 c5 128 0 140 -80 222 -58 59 -75 71 -93 66 -23 -7 -147 -120 -158
-144 -4 -8 -7 -59 -7 -113 l-1 -98 51 -54 c44 -46 48 -55 33 -63 -28 -15 -56
-2 -101 46 l-43 46 0 126 0 125 104 102 c64 63 113 103 125 103 12 0 57 -32
101 -70z m235 -39 c74 -73 105 -110 105 -126 0 -13 -4 -26 -9 -29 -14 -9 -231
208 -231 231 0 21 9 35 21 31 5 -2 56 -50 114 -107z"/>
</g>
</svg>
